<svg width="583" height="17" viewBox="0 0 583 17" fill="none" xmlns="http://www.w3.org/2000/svg">
<path d="M0.0690923 1.06073C0.0785444 0.516176 0.523082 0.0802761 1.06772 0.0802009L581.976 1.29188e-05C582.52 -6.21148e-05 582.964 0.434179 582.974 0.977669C583.055 5.74481 582.938 10.1492 582.776 14.9013C582.757 15.4388 582.317 15.8652 581.779 15.8664L571.688 15.8893C571.23 15.8903 570.831 15.5794 570.708 15.1381C569.705 11.5432 568.094 8.33565 564.223 7.43235C564.074 7.39758 563.916 7.40156 563.769 7.44419C560.077 8.51503 558.396 11.7774 556.322 14.9954C556.195 15.1932 556.002 15.3399 555.774 15.3979C552.974 16.1106 547.956 16.0024 544.699 15.9864C544.24 15.9842 543.843 15.6719 543.716 15.2305C542.383 10.6066 539.288 5.67839 532.975 9.09871C531.936 9.66012 530.194 13.3786 529.462 14.9522C529.366 15.1572 529.208 15.3258 528.994 15.3994C526.88 16.1272 521.132 15.9051 519.041 15.7972C513.956 15.5257 515.275 8.10114 508.553 7.53451C508.386 7.52048 508.213 7.55307 508.064 7.62871C505.004 9.18246 503.571 12.061 502.424 15.1208C502.277 15.5107 501.909 15.7739 501.493 15.7793L490.123 15.9267C489.623 15.9332 489.199 15.5674 489.097 15.0785C487.696 8.39542 482.229 5.17919 476.988 11.1594C476.921 11.2358 476.864 11.327 476.825 11.4209C475.929 13.5773 476.513 13.7481 474.929 15.1568C474.812 15.2611 474.67 15.3343 474.517 15.3706C470.938 16.2216 467.027 16.403 463.414 15.6733C463.255 15.6411 463.106 15.5694 462.985 15.46C461.432 14.0482 461.31 12.3975 460.127 10.0111C460.07 9.8958 459.984 9.78835 459.886 9.70534C453.109 3.98561 450.563 12.0588 448.189 15.0455C448.088 15.1726 447.956 15.2664 447.802 15.3187C445.296 16.1724 439.697 16.1602 436.598 16.22C436.25 16.2267 435.932 16.0232 435.794 15.7033C434.387 12.5163 432.918 9.01502 429.546 7.61432C429.396 7.55203 429.226 7.53302 429.065 7.55797C422.58 8.56655 423.942 16.3749 416.422 15.9313C414.384 15.8105 411.586 15.929 409.314 15.9342C408.879 15.9352 408.498 15.6472 408.359 15.234C408.093 14.4422 407.786 13.6634 407.441 12.9006C406.448 10.7282 404.612 8.56835 402.341 7.6402C402.189 7.5781 402.018 7.56132 401.856 7.58888C395.134 8.73383 397.02 17.0045 388.653 15.9447C387.699 15.824 384.172 15.9693 382.393 16.0217C381.959 16.0345 381.572 15.7508 381.427 15.3425C377.306 3.74026 372.369 6.33034 366.715 14.96C366.641 15.0727 366.546 15.1741 366.427 15.2371C364.44 16.2888 357.961 15.9989 354.81 15.9351C354.366 15.9261 353.981 15.6297 353.844 15.2067C353.545 14.2872 353.185 13.3922 352.765 12.5184C351.705 10.346 350.041 8.36808 347.759 7.464C347.606 7.4033 347.436 7.38762 347.274 7.41647C343.067 8.16447 342.245 11.3623 339.179 14.9606C339.061 15.1 338.907 15.2036 338.729 15.2484C336.346 15.8489 328.47 16.3521 327.18 14.8518C324.812 12.1025 323.515 9.58539 320.086 8.02844C319.954 7.96845 319.806 7.94012 319.661 7.94634C314.853 8.15255 313.854 10.9953 312.527 15.146C312.394 15.5611 312.007 15.8428 311.572 15.8434C308.001 15.8479 304.324 15.9664 300.744 16.054C300.295 16.0649 299.895 15.7686 299.751 15.3428C296.391 5.39129 288.653 5.14567 285.66 15.1823C285.53 15.6183 285.133 15.9311 284.678 15.9309L273.555 15.925C273.107 15.9247 272.715 15.6258 272.583 15.1977C272.331 14.382 272.043 13.5783 271.721 12.7865C270.769 10.4761 269.282 8.51742 266.974 7.48209C266.823 7.41422 266.651 7.39062 266.486 7.41285C259.971 8.29432 261.274 16.0564 254.073 15.8777C251.649 15.8169 248.964 15.9158 246.456 15.9199C246.002 15.9207 245.609 15.6101 245.482 15.1739C245.264 14.4297 245.006 13.6959 244.71 12.981C240.974 4.08772 234.313 7.84863 231.154 15.2554C230.995 15.6289 230.635 15.8822 230.229 15.889L219.732 16.0667C219.304 16.0739 218.92 15.8073 218.768 15.407C218.523 14.763 218.26 14.1246 217.981 13.4973C214.17 4.96367 207.302 6.55368 204.27 15.0693C204.133 15.4528 203.788 15.7304 203.381 15.7586C199.893 16.0007 196.188 16.1074 192.673 16.2443C192.24 16.2612 191.844 15.9925 191.684 15.5895C187.802 5.81339 181.216 4.7249 177.309 15.2568C177.163 15.6517 176.792 15.929 176.371 15.9353C173.685 15.9751 166.492 16.061 165.482 15.71C163.467 15.0173 162.008 9.33817 157.596 7.52768C157.455 7.46963 157.298 7.44923 157.147 7.47C153.445 7.97749 151.372 11.618 150.328 14.9938C150.205 15.3907 149.86 15.6823 149.446 15.7246C141.334 16.5562 138.223 17.7836 134.266 9.84993C134.199 9.71627 134.097 9.58902 133.978 9.49852C127.521 4.58004 125.03 12.1954 122.739 15.4182C122.597 15.618 122.373 15.7488 122.131 15.7915C112.984 17.4127 111.509 16.4019 106.976 9.48621C106.903 9.37429 106.803 9.27204 106.69 9.19961C101.405 5.79705 98.1008 10.6025 96.6592 13.8527C95.5356 16.3829 87.2001 16.0347 83.878 15.9418C83.6272 15.9348 83.4071 15.7812 83.3118 15.549C76.9275 0.328389 73.5432 10.0375 67.9875 15.4083C67.375 15.9983 57.2187 15.9916 56.2966 14.9724C54.2057 12.653 52.5828 9.28448 49.0081 7.63518C48.8837 7.57779 48.745 7.54876 48.6081 7.55273C44.4919 7.67201 42.934 11.4897 41.9309 15.0707C41.8115 15.4968 41.4093 15.8004 40.9669 15.8114C21.6156 16.2915 32.5809 12.4781 22.0468 7.68854C21.9182 7.63007 21.767 7.5961 21.6258 7.60082C17.3634 7.74335 16.108 11.5544 15.1269 15.2345C15.0084 15.6789 14.6041 15.987 14.1443 15.9803L1.0209 15.7911C0.48002 15.7833 0.0432773 15.3468 0.0364547 14.8059C-0.021319 10.2257 -0.0104099 5.64095 0.0690923 1.06073Z" fill="#DDEAF8"/>
</svg>
