<svg width="627" height="284" viewBox="0 0 627 284" fill="none" xmlns="http://www.w3.org/2000/svg">
<g clip-path="url(#clip0_144_141)">
<path d="M268.13 127.663C269.928 128.248 272.614 127.301 274.949 127.056L306.165 140.955C308.212 141.859 318.447 146.216 319.75 147.236C319.696 151.872 319.682 156.509 319.709 161.146L319.723 172.736L319.714 178.866L319.768 183.31C319.691 193.535 319.664 203.761 319.691 213.986L319.687 223.53L319.727 239.445L319.723 245.752H155.081H11.3853H1.05983L1.05773 231.172C0.980729 228.045 0.855359 225.524 1.62871 222.451C2.4527 219.136 4.29344 216.16 6.8927 213.941C11.3453 210.08 25.6139 202.014 31.5593 198.457L82.1833 168.303C82.1838 174.599 81.9004 184.486 82.3018 190.504C85.3264 191.921 87.7207 193.089 90.6554 194.74C93.3458 200.487 96.8621 196.508 101.076 194.018C102.13 195.602 101.819 203.117 101.801 205.521C104.899 207.373 109.395 210.214 112.521 211.741C116.28 210.096 121.358 207.109 125.042 205.086L146.71 193.169C146.725 196.432 146.882 201.697 146.642 204.807C148.836 206.135 157.977 211.481 159.458 212.746C161.673 211.892 162.422 210.836 163.49 208.756C166.459 202.978 169.138 197.095 172.144 191.329C174.423 186.258 176.981 181.16 179.425 176.153C187.426 171.864 265.863 130.443 267.824 127.788L268.13 127.663L268.13 127.663Z" fill="#006633"/>
<path d="M319.751 147.235C319.697 151.872 319.684 156.509 319.711 161.145L319.724 172.736L319.715 178.866L319.769 183.309C319.693 193.535 319.666 203.76 319.693 213.985L319.688 223.53L319.729 239.444L319.724 245.752H155.083C166.339 238.65 178.553 231.705 190.059 224.888L253.956 186.92L296.815 161C303.76 156.777 312.801 150.877 319.751 147.235Z" fill="#002824"/>
<path d="M260.706 142.669C267.656 146.355 274.547 150.159 281.367 154.079C257.24 167.67 231.815 183.406 207.79 197.602L177.241 215.63C172.35 218.519 164.475 222.951 159.878 226.133C151.749 221.59 142.467 216.978 134.653 212.386C137.646 209.929 143.133 206.78 146.641 204.807C148.835 206.135 157.976 211.481 159.457 212.746C161.671 211.893 162.421 210.836 163.489 208.756C166.458 202.978 169.137 197.095 172.143 191.329C174.816 189.504 177.455 188.725 180.229 187.209C207.056 172.549 233.645 156.87 260.706 142.669L260.706 142.669Z" fill="#67ED0A"/>
<path d="M267.825 127.789C265.864 130.443 187.428 171.864 179.426 176.153C176.982 181.16 174.424 186.258 172.145 191.329C169.139 197.095 166.46 202.978 163.491 208.756C162.423 210.836 161.673 211.893 159.459 212.746C157.979 211.481 148.837 206.135 146.643 204.807C146.884 201.697 146.726 196.432 146.711 193.169L125.043 205.085C121.359 207.109 116.281 210.097 112.523 211.741L111.621 209.264C112.018 207.242 111.788 183.262 111.79 179.322L111.84 99.27C115.169 96.9802 122.431 93.2373 126.231 91.1542L153.853 76.0716L255.218 20.9922L267.825 127.789Z" fill="white"/>
<path d="M146.71 193.168C150.252 191.223 155.21 188.686 158.526 186.587C158.557 191.438 158.388 209.212 159.459 212.746C157.978 211.48 148.837 206.135 146.643 204.807C146.883 201.697 146.726 196.432 146.71 193.168V193.168Z" fill="#002824"/>
<path d="M82.17 83.7177C127.018 57.7016 173.942 34.0064 219.244 8.701C224.351 5.84856 229.674 2.99436 234.889 0.368408C238.391 2.25887 241.915 4.10013 245.467 5.89183L91.1233 90.0306C91.2347 98.4658 91.5174 193.149 90.6542 194.74C87.7195 193.088 85.3254 191.92 82.3006 190.503C81.8992 184.485 82.1826 174.598 82.182 168.302L82.17 83.7176V83.7177Z" fill="#67ED0A"/>
<path d="M101.345 95.1287C106.212 91.8398 114.28 87.6705 119.621 84.732L152.359 66.8317L255.247 11.0718L255.215 20.9916C222.336 39.5908 187.159 57.9198 153.85 76.0714L126.228 91.1539C122.428 93.237 115.166 96.9799 111.837 99.2698L111.787 179.321C111.785 183.261 112.015 207.24 111.618 209.263L112.52 211.74C109.394 210.213 104.897 207.373 101.799 205.52C101.817 203.117 102.128 195.601 101.075 194.017L101.548 192.985C100.633 189.211 101.304 172.045 101.273 166.603C101.14 142.854 101.739 118.863 101.345 95.1287Z" fill="#4CAD07"/>
<path d="M101.93 95.4779C105.608 96.6868 107.856 97.7242 111.347 99.3506C111.325 109.718 110.954 207.687 111.618 209.263L112.52 211.74C109.394 210.214 104.898 207.373 101.8 205.52C101.817 203.117 102.129 195.601 101.075 194.017L101.548 192.985C102.238 191.817 102.471 104.704 101.929 95.4781L101.93 95.4779Z" fill="#4CAD07"/>
<path d="M381.264 97.5327C382.392 96.5706 383.362 96.2406 384.708 95.6726C384.751 96.9934 384.712 100.049 385.183 101.106C393.951 104.006 406.339 109.84 415.151 113.5C441.149 124.427 467.066 135.556 492.889 146.886L505.704 171.861C507.619 175.579 510.482 183.208 514.285 184.634C516.438 183.799 526.194 178.207 528.694 176.834L528.728 165.013C538.146 169.557 547.603 174.016 557.098 178.392C557.786 178.5 565.704 174.172 566.952 173.518C566.935 171.354 566.704 165.091 567.281 163.4C569.059 164.237 575.362 167.308 576.968 167.818L584.062 163.914C583.959 162.182 583.712 160.409 584.259 158.784L585.177 158.448L585.57 158.647L589.241 160.084C594.083 161.995 626.076 174.029 627.999 175.628C627.26 210.981 627.901 248.437 627.914 283.999H506.559H306.632L306.705 249.584L306.688 244.265L306.91 244.012C307.884 243.556 309.35 242.764 310.286 242.159C322.87 233.996 340.023 228.422 348.129 215.179C353.701 206.081 351.834 196.275 352.402 186.331C352.223 185.022 352.317 180.82 352.317 179.292L352.069 179.371L352.15 177.806L330.182 148.049C336.959 144.053 346.847 140.112 350.992 134.055C351.313 132.446 351.244 126.86 351.261 124.938C351.184 119.721 351.402 114.878 356.116 111.732C363.333 106.917 373.422 101.138 381.264 97.5331L381.264 97.5327Z" fill="#006633"/>
<path d="M352.317 179.292C355.672 179.9 363.718 183.416 367.201 184.853L391.678 194.957C430.235 210.712 468.66 226.79 506.948 243.19C506.089 256.483 507.042 270.64 506.559 283.999H306.632L306.705 249.584L306.688 244.265L306.91 244.012L352.317 179.292H352.317Z" fill="#002824"/>
<path d="M506.947 243.191L585.143 199.499C597.681 192.443 615.679 181.525 627.999 175.628C627.26 210.981 627.901 248.437 627.914 283.999H506.559C507.041 270.641 506.088 256.483 506.947 243.191Z" fill="#162413"/>
<path d="M351.263 124.938L351.519 122.423L352.054 122.007C353.344 122.393 357.216 125.69 359.322 126.971C357.934 129.322 354.391 136.383 350.993 134.055C351.314 132.446 351.246 126.86 351.263 124.937L351.263 124.938Z" fill="#002824"/>
<path d="M397.72 10.9585L541.024 66.877C544.821 68.3977 569.234 77.8235 571.221 79.5473C571.322 101.171 571.216 122.796 570.907 144.418C570.89 147.553 570.58 166.162 571.203 168.056C570.607 169.803 570.845 176.274 570.863 178.51C569.574 179.185 561.393 183.656 560.682 183.545C550.873 179.025 541.103 174.417 531.373 169.722L531.338 181.936C528.755 183.353 518.676 189.131 516.451 189.994C512.522 188.52 509.564 180.639 507.586 176.797L494.346 150.995C467.668 139.29 440.892 127.793 414.033 116.503C404.93 112.722 392.131 106.694 383.072 103.699C382.586 102.607 382.626 99.45 382.582 98.0853C382.688 96.2399 382.525 87.1458 382.811 86.0629C385.544 75.8367 378.935 22.353 382.233 15.7508C383.575 14.9213 384.012 15.1935 385.734 15.1808C387.716 15.4943 390.171 16.7866 392.056 17.6694L392.921 17.9933C394.241 16.5591 395.394 16.5303 397.279 15.5933C398.126 14.4266 397.795 12.4841 397.72 10.9584L397.72 10.9585Z" fill="white"/>
<path d="M397.721 10.9585L541.024 66.877C544.821 68.3977 569.235 77.8235 571.221 79.5473C567.95 80.859 564.241 82.9244 561.072 83.9351C559.443 82.9332 550.034 79.3459 547.791 78.46L517.604 66.5571L392.922 17.9933C394.242 16.5591 395.394 16.5303 397.279 15.5933C398.126 14.4266 397.795 12.4841 397.72 10.9584L397.721 10.9585Z" fill="#4CAD07"/>
<path d="M561.071 83.9356C564.241 82.9248 567.95 80.8591 571.221 79.5476C571.323 101.172 571.217 122.796 570.908 144.418C570.89 147.553 570.581 166.162 571.203 168.057C570.607 169.804 570.845 176.274 570.863 178.51C569.574 179.185 561.394 183.657 560.683 183.545C561.509 181.059 561.076 159.7 561.076 155.969L561.071 83.9354L561.071 83.9356Z" fill="#4CAD07"/>
<path d="M516.678 162.792C521.538 165.147 526.425 167.569 531.374 169.722L531.339 181.936C528.756 183.353 518.677 189.131 516.452 189.994C516.475 181.04 516.377 171.707 516.678 162.792V162.792Z" fill="#002824"/>
<path d="M398.18 5.13794L530.522 56.6103L565.116 70.3043C568.286 71.5612 579.023 75.6088 581.49 76.9892C584.077 75.9387 586.554 74.6292 588.881 73.0809L588.828 131.581C588.814 141.094 588.695 150.832 588.717 160.365C588.717 161.962 588.823 161.975 589.693 162.941L588.744 163.288C588.179 164.967 588.435 166.799 588.541 168.588L581.212 172.621C579.552 172.094 573.04 168.922 571.204 168.057C570.581 166.162 570.89 147.553 570.908 144.419C571.217 122.796 571.323 101.172 571.222 79.5478C569.235 77.8241 544.821 68.3983 541.025 66.8775L397.721 10.959L396.909 10.5535C398.397 9.66884 397.267 7.43794 398.18 5.13811V5.13794Z" fill="#CEE8BA"/>
<path d="M588.88 73.0803L588.827 131.581C588.814 141.094 588.695 150.832 588.717 160.364C588.717 161.961 588.823 161.975 589.692 162.941L588.743 163.287C588.178 164.967 588.434 166.798 588.54 168.587L581.211 172.621C581.609 163.287 581.189 151.603 581.216 142.033L581.49 76.9888C584.077 75.9385 586.553 74.6289 588.88 73.0805L588.88 73.0803Z" fill="#4CAD07"/>
<path d="M405.674 -0.000366211C424.181 7.12665 586.048 69.0241 588.547 72.0119L588.878 73.0809C586.552 74.6293 584.075 75.9387 581.488 76.9892C579.02 75.6088 568.284 71.5612 565.114 70.3043L530.52 56.6103L398.178 5.13795C398.915 3.6558 403.829 1.1492 405.674 -0.000366211Z" fill="#F0F6FD"/>
<path d="M400.8 132.874L451.749 153.668C459.127 156.675 471.72 161.438 478.513 164.821C478.893 169.035 478.612 174.42 478.67 178.761C478.802 188.441 478.484 198.38 478.685 208.039L473.261 210.911C471.34 210.37 466.362 208.171 464.368 207.347L445.855 199.652C428.663 192.515 411.406 185.534 394.083 178.712C393.875 168.835 394.12 158.851 393.999 148.961C393.948 144.695 393.926 139.919 394.211 135.685C396.395 134.719 398.59 133.782 400.8 132.874H400.8Z" fill="#67ED0A"/>
<path d="M400.799 132.874L451.749 153.668C459.127 156.675 471.72 161.438 478.513 164.821C477.468 165.339 474.313 166.832 473.524 167.418C469.189 166.289 453.641 159.498 448.418 157.392L394.211 135.685C396.395 134.719 398.59 133.782 400.799 132.874H400.799Z" fill="#4CAD07"/>
<path d="M478.513 164.821C478.893 169.036 478.612 174.42 478.67 178.761C478.802 188.441 478.484 198.381 478.685 208.039L473.261 210.911C472.94 208.067 473.324 199.035 473.375 195.729C473.514 186.403 473.229 176.683 473.525 167.419C474.314 166.832 477.469 165.339 478.513 164.821L478.513 164.821Z" fill="#006633"/>
</g>
<path d="M176.341 123.922V125.984L170.811 129.447V133.682L175.736 130.597V132.725L170.811 135.809V140.811L176.341 137.348V139.476L170.811 142.94L169.929 143.492L169.046 144.045V128.49L176.341 123.922Z" fill="url(#paint0_linear_144_141)"/>
<path d="M187.356 117.024L189.138 115.908V131.463L187.373 132.569V120.634L183.894 129.065L182.532 129.918L179.036 125.855V137.79L177.271 138.895V123.341L179.036 122.235L183.213 127.1L187.356 117.024Z" fill="url(#paint1_linear_144_141)"/>
<path d="M191.159 130.197L189.243 131.397L194.201 112.737L196.134 111.526L201.092 123.975L199.193 125.165L197.63 121.274L192.705 124.358L191.159 130.197L191.159 130.197ZM193.377 121.809L196.957 119.567L195.176 115.066L193.377 121.809Z" fill="url(#paint2_linear_144_141)"/>
<path d="M204.473 108.19V119.971L205.33 119.434V121.32L201.818 123.521V121.634L202.709 121.076V109.295L201.818 109.853V107.966L205.33 105.766V107.653L204.473 108.19Z" fill="url(#paint3_linear_144_141)"/>
<path d="M206.815 120.39V104.835L208.58 103.73V117.157L214.093 113.704V115.832L206.815 120.39Z" fill="url(#paint4_linear_144_141)"/>
<path d="M142.709 134.529C142.709 134.976 142.64 135.435 142.503 135.904C142.366 136.374 142.164 136.838 141.898 137.295C141.373 138.206 140.699 138.923 139.877 139.446C139.238 139.853 138.659 140.052 138.142 140.041C137.624 140.033 137.244 139.818 137 139.399L138.016 138.067C138.168 138.328 138.41 138.45 138.741 138.433C139.072 138.416 139.451 138.272 139.877 138.001C140.981 137.298 141.533 136.396 141.533 135.29C141.533 135.081 141.504 134.921 141.447 134.808C141.39 134.695 141.304 134.608 141.19 134.552C140.916 134.428 140.425 134.473 139.717 134.685C139.291 134.817 138.93 134.893 138.633 134.913C138.336 134.931 138.089 134.889 137.891 134.787C137.411 134.585 137.171 134.065 137.171 133.23C137.171 132.813 137.234 132.381 137.36 131.938C137.485 131.496 137.662 131.068 137.891 130.651C138.127 130.233 138.403 129.856 138.719 129.521C139.034 129.186 139.383 128.897 139.763 128.655C140.319 128.302 140.831 128.115 141.299 128.095C141.767 128.075 142.123 128.241 142.366 128.593L141.442 129.927C141.221 129.72 140.966 129.636 140.677 129.676C140.387 129.716 140.083 129.838 139.763 130.041C139.535 130.186 139.325 130.369 139.135 130.59C138.945 130.81 138.785 131.031 138.656 131.253C138.549 131.44 138.471 131.636 138.422 131.841C138.372 132.046 138.347 132.249 138.347 132.447C138.347 132.576 138.363 132.698 138.393 132.813C138.423 132.928 138.496 133.021 138.61 133.093C138.724 133.164 138.891 133.196 139.112 133.19C139.333 133.184 139.634 133.124 140.014 133.011C140.471 132.869 140.855 132.786 141.167 132.761C141.479 132.737 141.742 132.776 141.955 132.879C142.457 133.095 142.709 133.646 142.709 134.53L142.709 134.529Z" fill="#002824"/>
<path d="M145.794 135.71C145.399 135.962 145.028 136.102 144.681 136.128C144.335 136.155 144.032 136.082 143.773 135.909C143.515 135.735 143.311 135.468 143.163 135.105C143.014 134.743 142.94 134.303 142.94 133.786C142.94 133.27 143.01 132.738 143.151 132.192C143.292 131.645 143.482 131.126 143.722 130.636C143.962 130.146 144.242 129.702 144.561 129.305C144.881 128.908 145.223 128.593 145.589 128.36C145.962 128.123 146.306 127.988 146.622 127.956C146.938 127.924 147.212 128.013 147.444 128.222C147.676 128.432 147.857 128.772 147.986 129.241C148.116 129.71 148.18 130.327 148.18 131.092L144.116 133.679C144.169 133.903 144.253 134.091 144.367 134.242C144.481 134.392 144.616 134.5 144.772 134.565C144.928 134.63 145.103 134.645 145.298 134.611C145.492 134.577 145.695 134.492 145.908 134.356C146.198 134.172 146.466 133.932 146.713 133.635C146.961 133.339 147.172 133.02 147.347 132.681L148.032 133.139C147.766 133.656 147.441 134.141 147.056 134.594C146.672 135.048 146.251 135.42 145.794 135.71H145.794ZM145.589 129.671C145.414 129.783 145.248 129.933 145.092 130.122C144.936 130.31 144.791 130.526 144.658 130.77C144.525 131.014 144.411 131.275 144.316 131.554C144.221 131.833 144.15 132.117 144.105 132.404L146.993 130.566C146.978 130.337 146.936 130.135 146.868 129.96C146.799 129.785 146.704 129.654 146.582 129.568C146.46 129.482 146.318 129.443 146.154 129.453C145.99 129.463 145.802 129.536 145.589 129.671V129.671Z" fill="#002824"/>
<path d="M149.611 133.103L148.504 133.808V126.67L149.383 126.111L149.611 126.591C149.794 126.246 150.014 125.917 150.273 125.603C150.532 125.289 150.814 125.036 151.118 124.842C151.316 124.716 151.541 124.613 151.792 124.533C152.043 124.452 152.277 124.453 152.494 124.533C152.711 124.613 152.894 124.8 153.042 125.093C153.19 125.386 153.264 125.841 153.264 126.457V130.779L152.214 131.447V127.11C152.214 126.802 152.178 126.565 152.106 126.397C152.033 126.229 151.938 126.119 151.82 126.065C151.702 126.01 151.569 126.003 151.42 126.043C151.272 126.083 151.118 126.154 150.958 126.256C150.836 126.333 150.697 126.451 150.541 126.61C150.385 126.769 150.239 126.959 150.102 127.181C149.965 127.402 149.849 127.645 149.754 127.909C149.658 128.173 149.611 128.454 149.611 128.752V133.104L149.611 133.103Z" fill="#002824"/>
<path d="M159.122 116.169V127.048L158.243 127.608L158.015 127.008C157.794 127.437 157.543 127.822 157.262 128.166C156.98 128.509 156.656 128.797 156.291 129.029C155.911 129.271 155.56 129.397 155.241 129.407C154.921 129.416 154.643 129.328 154.407 129.14C154.171 128.952 153.987 128.673 153.853 128.3C153.72 127.928 153.654 127.484 153.654 126.967C153.654 126.45 153.72 125.921 153.853 125.379C153.987 124.837 154.171 124.323 154.407 123.835C154.643 123.347 154.921 122.904 155.241 122.507C155.56 122.11 155.911 121.79 156.291 121.548C156.672 121.306 157.003 121.177 157.284 121.162C157.566 121.146 157.81 121.222 158.015 121.39V116.874L159.122 116.169ZM156.377 127.693C156.605 127.548 156.818 127.362 157.012 127.139C157.208 126.915 157.379 126.655 157.528 126.357C157.676 126.059 157.794 125.728 157.878 125.366C157.961 125.005 158.003 124.616 158.003 124.198C158.003 123.751 157.961 123.401 157.878 123.146C157.794 122.891 157.676 122.715 157.528 122.616C157.379 122.517 157.208 122.487 157.012 122.527C156.818 122.566 156.605 122.659 156.377 122.805C156.156 122.945 155.945 123.142 155.747 123.392C155.547 123.643 155.376 123.924 155.231 124.234C155.086 124.545 154.97 124.877 154.887 125.228C154.803 125.58 154.761 125.924 154.761 126.262C154.761 126.6 154.803 126.891 154.887 127.136C154.97 127.38 155.086 127.567 155.231 127.699C155.376 127.83 155.547 127.898 155.747 127.9C155.945 127.903 156.156 127.833 156.377 127.693V127.693Z" fill="#002824"/>
<path d="M166.583 121.004C167.025 120.723 167.434 120.324 167.811 119.806C168.187 119.288 168.505 118.718 168.764 118.096L169.598 118.609C169.232 119.408 168.789 120.152 168.267 120.841C167.746 121.531 167.185 122.067 166.583 122.45C166.035 122.798 165.518 122.984 165.031 123.006C164.544 123.028 164.121 122.907 163.761 122.644C163.402 122.381 163.116 121.986 162.905 121.46C162.694 120.934 162.587 120.303 162.587 119.568C162.587 118.823 162.694 118.055 162.905 117.265C163.116 116.475 163.402 115.719 163.761 114.999C164.121 114.278 164.544 113.619 165.031 113.021C165.518 112.423 166.035 111.949 166.583 111.601C167.093 111.276 167.575 111.101 168.028 111.076C168.481 111.051 168.886 111.138 169.244 111.338L168.536 112.966C168.285 112.778 167.992 112.679 167.657 112.668C167.322 112.658 166.964 112.774 166.583 113.016C166.195 113.263 165.832 113.601 165.493 114.03C165.155 114.46 164.859 114.938 164.608 115.465C164.357 115.993 164.157 116.544 164.009 117.121C163.861 117.697 163.786 118.258 163.786 118.805C163.786 119.351 163.861 119.818 164.009 120.206C164.157 120.593 164.357 120.888 164.608 121.091C164.859 121.294 165.155 121.392 165.493 121.385C165.832 121.377 166.195 121.251 166.583 121.004L166.583 121.004Z" fill="#002824"/>
<path d="M173.161 112.303C173.107 112.307 173.054 112.311 173.001 112.315C172.955 112.324 172.902 112.339 172.841 112.357C172.78 112.376 172.715 112.407 172.647 112.451C172.426 112.591 172.22 112.769 172.03 112.985C171.84 113.2 171.676 113.431 171.539 113.677C171.402 113.923 171.294 114.179 171.214 114.443C171.134 114.708 171.094 114.959 171.094 115.198L171.083 119.437L169.975 120.142V113.004L170.854 112.444L171.082 113.089C171.235 112.704 171.434 112.346 171.682 112.014C171.929 111.683 172.239 111.399 172.612 111.161C172.856 111.006 173.134 110.874 173.446 110.765L173.16 112.303H173.161Z" fill="#002824"/>
<path d="M175.242 115.986L172.925 111.127L174.158 110.342L175.847 113.901L177.503 108.213L178.725 107.436L175.197 119.666L173.975 120.443L175.242 115.986Z" fill="#002824"/>
<path d="M178.831 117.457V107.368L179.7 106.815L179.927 107.416C180.148 106.987 180.403 106.601 180.688 106.261C180.973 105.92 181.297 105.635 181.655 105.407C182.037 105.163 182.389 105.036 182.715 105.023C183.038 105.011 183.32 105.097 183.556 105.285C183.791 105.473 183.978 105.751 184.111 106.123C184.244 106.496 184.311 106.94 184.311 107.457C184.311 107.973 184.244 108.503 184.111 109.045C183.978 109.586 183.791 110.102 183.556 110.59C183.32 111.078 183.038 111.523 182.715 111.923C182.389 112.324 182.037 112.645 181.655 112.888C181.282 113.126 180.952 113.253 180.671 113.268C180.389 113.284 180.14 113.206 179.927 113.034V116.76L178.831 117.457ZM181.565 106.775C181.344 106.916 181.133 107.098 180.935 107.318C180.737 107.538 180.562 107.799 180.414 108.097C180.266 108.395 180.148 108.723 180.064 109.08C179.98 109.436 179.938 109.823 179.938 110.24C179.938 110.687 179.98 111.041 180.064 111.3C180.148 111.56 180.265 111.738 180.414 111.837C180.562 111.937 180.737 111.967 180.935 111.93C181.133 111.894 181.344 111.804 181.565 111.664C181.786 111.523 181.997 111.324 182.195 111.069C182.395 110.813 182.566 110.527 182.711 110.212C182.855 109.896 182.971 109.562 183.055 109.21C183.139 108.859 183.181 108.514 183.181 108.177C183.181 107.839 183.139 107.548 183.055 107.303C182.971 107.058 182.855 106.873 182.711 106.747C182.566 106.62 182.395 106.558 182.195 106.561C181.997 106.563 181.786 106.635 181.565 106.776V106.775Z" fill="#002824"/>
<path d="M187.508 108.953C187.196 109.291 186.888 109.571 186.584 109.795C186.279 110.018 186.005 110.136 185.762 110.147C185.518 110.158 185.32 110.03 185.168 109.765C185.016 109.499 184.939 109.038 184.939 108.382V104.761L184.14 105.27V104.284L184.939 103.479V101.572L186.047 100.867V102.774L187.531 101.83V103.112L186.047 104.056V107.901C186.047 108.139 186.068 108.315 186.11 108.427C186.152 108.54 186.222 108.599 186.321 108.606C186.42 108.613 186.549 108.565 186.709 108.463C186.869 108.361 187.063 108.218 187.292 108.033L187.508 108.953V108.953Z" fill="#002824"/>
<path d="M190.115 107.503C189.734 107.746 189.378 107.875 189.047 107.892C188.716 107.909 188.427 107.827 188.179 107.647C187.932 107.467 187.736 107.194 187.592 106.829C187.447 106.464 187.375 106.023 187.375 105.507C187.375 104.99 187.447 104.457 187.592 103.908C187.736 103.359 187.932 102.837 188.179 102.342C188.427 101.847 188.716 101.397 189.047 100.992C189.378 100.588 189.734 100.265 190.115 100.023C190.488 99.7851 190.841 99.6569 191.176 99.6374C191.511 99.6179 191.802 99.6985 192.05 99.8788C192.297 100.059 192.493 100.332 192.638 100.697C192.782 101.062 192.855 101.502 192.855 102.019C192.855 102.536 192.782 103.069 192.638 103.618C192.493 104.167 192.297 104.689 192.05 105.184C191.802 105.679 191.511 106.13 191.176 106.537C190.841 106.944 190.488 107.266 190.115 107.504V107.503ZM190.109 101.308C189.888 101.448 189.677 101.647 189.479 101.902C189.281 102.157 189.106 102.445 188.958 102.758C188.809 103.071 188.691 103.404 188.608 103.758C188.524 104.109 188.482 104.456 188.482 104.794C188.482 105.132 188.524 105.426 188.608 105.671C188.691 105.918 188.809 106.104 188.958 106.233C189.106 106.362 189.281 106.429 189.479 106.432C189.677 106.436 189.888 106.366 190.109 106.225C190.33 106.085 190.541 105.886 190.739 105.631C190.939 105.374 191.11 105.086 191.254 104.771C191.399 104.455 191.515 104.121 191.599 103.767C191.682 103.415 191.724 103.068 191.724 102.731C191.724 102.393 191.682 102.099 191.599 101.855C191.515 101.607 191.399 101.423 191.254 101.296C191.11 101.17 190.939 101.102 190.739 101.1C190.541 101.097 190.33 101.167 190.109 101.307V101.308Z" fill="#002824"/>
<path d="M201.182 93.1436V100.282L200.246 100.878L200.074 100.167C199.884 100.616 199.64 101.019 199.343 101.377C199.047 101.735 198.746 102.011 198.442 102.204C198.061 102.447 197.705 102.576 197.374 102.593C197.043 102.61 196.754 102.528 196.506 102.348C196.259 102.168 196.063 101.895 195.918 101.53C195.774 101.165 195.701 100.724 195.701 100.208C195.701 99.6911 195.774 99.1583 195.918 98.6092C196.063 98.0602 196.259 97.5381 196.506 97.0429C196.754 96.5477 197.043 96.0978 197.374 95.6934C197.705 95.2889 198.061 94.9657 198.442 94.7236C198.746 94.5298 199.039 94.4202 199.321 94.3951C199.602 94.3699 199.853 94.451 200.074 94.6383L200.246 93.7395L201.182 93.1436ZM198.442 100.923C198.662 100.782 198.872 100.585 199.07 100.33C199.268 100.074 199.439 99.7892 199.583 99.4736C199.728 99.1581 199.842 98.8246 199.926 98.4731C200.01 98.1219 200.051 97.7773 200.051 97.4396C200.051 97.1018 200.009 96.8105 199.926 96.5658C199.842 96.3211 199.728 96.1329 199.583 96.0015C199.439 95.87 199.268 95.8026 199.07 95.7994C198.872 95.7962 198.662 95.8647 198.442 96.0053C198.221 96.1458 198.012 96.3434 197.814 96.5986C197.616 96.8537 197.444 97.139 197.3 97.4546C197.155 97.7703 197.041 98.1036 196.957 98.455C196.874 98.8063 196.832 99.1509 196.832 99.4886C196.832 99.8264 196.874 100.118 196.957 100.362C197.041 100.607 197.155 100.795 197.3 100.927C197.444 101.058 197.616 101.126 197.814 101.129C198.011 101.132 198.221 101.063 198.442 100.923Z" fill="#002824"/>
<path d="M204.13 96.9157C204.198 96.7927 204.259 96.6644 204.313 96.5311C204.366 96.3978 204.392 96.2667 204.392 96.1375C204.392 95.9784 204.349 95.8723 204.261 95.8186C204.174 95.7651 204.067 95.741 203.942 95.7464C203.816 95.7518 203.685 95.7784 203.548 95.8258C203.411 95.8733 203.296 95.9113 203.205 95.9394C202.954 96.0198 202.718 96.0731 202.497 96.0993C202.276 96.1256 202.084 96.1087 201.921 96.049C201.757 95.9891 201.627 95.8779 201.532 95.7148C201.437 95.5518 201.39 95.3164 201.39 95.0084C201.39 94.7203 201.443 94.4157 201.548 94.0956C201.654 93.7743 201.795 93.4613 201.972 93.1549C202.149 92.8485 202.356 92.5626 202.596 92.2956C202.834 92.03 203.087 91.8117 203.353 91.6422C203.589 91.492 203.814 91.3939 204.027 91.3501C204.24 91.3039 204.432 91.3057 204.603 91.3507C204.775 91.3981 204.919 91.4948 205.037 91.6408C205.155 91.7868 205.233 91.9806 205.271 92.2245L204.278 93.1696C204.232 92.9601 204.133 92.8244 203.981 92.7625C203.829 92.7003 203.62 92.754 203.353 92.9237C203.262 92.9818 203.167 93.0598 203.068 93.1575C202.969 93.2552 202.877 93.3656 202.794 93.4884C202.71 93.6113 202.64 93.7406 202.582 93.8763C202.525 94.0094 202.497 94.1418 202.497 94.2709C202.497 94.41 202.529 94.5088 202.594 94.5669C202.658 94.625 202.737 94.6573 202.828 94.6638C202.919 94.6702 203.018 94.6569 203.125 94.6288C203.231 94.6006 203.33 94.5725 203.422 94.5441C203.825 94.4167 204.16 94.3425 204.426 94.322C204.693 94.3015 204.906 94.3298 205.066 94.4044C205.225 94.4816 205.338 94.6063 205.402 94.7788C205.467 94.9513 205.499 95.169 205.499 95.4372C205.499 95.7551 205.444 96.0882 205.334 96.4342C205.223 96.7826 205.073 97.1192 204.879 97.4463C204.685 97.771 204.455 98.0766 204.184 98.3626C203.914 98.6489 203.625 98.89 203.313 99.0886C202.843 99.3878 202.422 99.5038 202.055 99.4346C201.686 99.3665 201.439 99.1192 201.309 98.6948L202.245 97.5476C202.367 97.8178 202.523 97.9545 202.714 97.9575C202.904 97.9606 203.121 97.8848 203.364 97.7295C203.669 97.5357 203.924 97.2641 204.129 96.9149L204.13 96.9157Z" fill="#002824"/>
<path d="M213.699 81.7484V83.1491L209.943 85.5398V88.416L213.288 86.2869V87.7324L209.943 89.8615V93.2592L213.699 90.8686V92.3141L209.943 94.7048L209.344 95.0861L208.744 95.4677V84.9019L213.699 81.7484Z" fill="#002824"/>
<path d="M219.47 81.5043V88.6425L218.533 89.2384L218.362 88.5277C218.172 88.9766 217.928 89.3801 217.631 89.7378C217.334 90.0957 217.034 90.3715 216.729 90.5651C216.349 90.8074 215.993 90.9368 215.662 90.9539C215.331 90.9708 215.041 90.8892 214.794 90.7089C214.547 90.5285 214.351 90.2559 214.206 89.891C214.061 89.5259 213.989 89.0852 213.989 88.5685C213.989 88.0518 214.061 87.519 214.206 86.97C214.351 86.4209 214.547 85.8988 214.794 85.4036C215.042 84.9084 215.331 84.4585 215.662 84.0542C215.993 83.6497 216.349 83.3264 216.729 83.0843C217.034 82.8905 217.327 82.7809 217.608 82.7558C217.89 82.7307 218.141 82.8117 218.362 82.9991L218.533 82.1002L219.47 81.5043ZM216.729 89.2836C216.95 89.1431 217.159 88.9453 217.357 88.6903C217.555 88.4352 217.727 88.1499 217.871 87.8343C218.016 87.5186 218.13 87.1853 218.214 86.8339C218.297 86.4824 218.339 86.138 218.339 85.8003C218.339 85.4625 218.297 85.1712 218.214 84.9265C218.13 84.6816 218.016 84.4937 217.871 84.3622C217.727 84.2307 217.555 84.1633 217.357 84.1601C217.159 84.1569 216.95 84.2255 216.729 84.366C216.509 84.5065 216.299 84.7042 216.101 84.9593C215.903 85.2144 215.732 85.4997 215.588 85.8151C215.443 86.1308 215.329 86.4641 215.245 86.8156C215.161 87.167 215.12 87.5114 215.12 87.8491C215.12 88.1869 215.162 88.4782 215.245 88.7229C215.329 88.9678 215.443 89.1558 215.588 89.2872C215.732 89.4187 215.903 89.4861 216.101 89.4893C216.299 89.4925 216.509 89.424 216.729 89.2834V89.2836Z" fill="#002824"/>
<path d="M222.417 85.2764C222.486 85.1534 222.547 85.0251 222.6 84.8918C222.653 84.7585 222.68 84.6274 222.68 84.4982C222.68 84.3391 222.636 84.233 222.549 84.1793C222.461 84.1258 222.355 84.1017 222.229 84.1071C222.103 84.1126 221.972 84.1389 221.835 84.1863C221.698 84.2338 221.584 84.2718 221.493 84.3001C221.241 84.3806 221.005 84.4338 220.785 84.46C220.564 84.4863 220.372 84.4694 220.208 84.4097C220.044 84.3498 219.915 84.2386 219.82 84.0756C219.725 83.9125 219.677 83.6771 219.677 83.3691C219.677 83.081 219.73 82.7764 219.835 82.4563C219.942 82.1351 220.082 81.822 220.259 81.5156C220.436 81.2092 220.644 80.9233 220.883 80.6563C221.121 80.3908 221.374 80.1726 221.641 80.0029C221.877 79.8528 222.101 79.7546 222.314 79.7108C222.527 79.6646 222.72 79.6664 222.891 79.7114C223.062 79.7589 223.207 79.8556 223.325 80.0015C223.443 80.1475 223.521 80.3413 223.559 80.5852L222.565 81.5303C222.52 81.3208 222.421 81.1851 222.269 81.123C222.116 81.0609 221.907 81.1147 221.641 81.2842C221.549 81.3423 221.454 81.4203 221.355 81.518C221.256 81.6157 221.165 81.7261 221.081 81.849C220.997 81.9718 220.927 82.1011 220.87 82.2368C220.813 82.3699 220.784 82.5024 220.784 82.6314C220.784 82.7706 220.817 82.8693 220.881 82.9274C220.946 82.9855 221.024 83.0179 221.115 83.0243C221.207 83.0307 221.306 83.0174 221.412 82.9893C221.519 82.9614 221.618 82.933 221.709 82.9047C222.112 82.7772 222.447 82.703 222.714 82.6825C222.98 82.662 223.193 82.6903 223.353 82.7649C223.513 82.8421 223.625 82.9668 223.69 83.1393C223.755 83.3118 223.787 83.5295 223.787 83.7977C223.787 84.1156 223.732 84.4489 223.622 84.7947C223.511 85.1431 223.361 85.4797 223.167 85.8068C222.973 86.1315 222.742 86.4371 222.472 86.7232C222.202 87.0095 221.913 87.2505 221.601 87.4492C221.131 87.7483 220.71 87.8643 220.343 87.7952C219.974 87.727 219.726 87.4797 219.597 87.0553L220.533 85.9081C220.655 86.1783 220.811 86.315 221.001 86.3181C221.192 86.3211 221.408 86.2451 221.652 86.0901C221.956 85.8963 222.211 85.6246 222.417 85.2754L222.417 85.2764Z" fill="#002824"/>
<path d="M225.219 84.9848L224.1 85.6969V78.5587L225.207 77.8538L225.219 84.9848ZM224.648 76.66C224.45 76.7858 224.283 76.8005 224.146 76.704C224.009 76.6075 223.94 76.43 223.94 76.1716C223.94 75.9133 224.009 75.6511 224.146 75.3851C224.283 75.1192 224.45 74.9231 224.648 74.7973C224.846 74.6712 225.013 74.6541 225.15 74.7458C225.287 74.8375 225.356 75.0124 225.356 75.2707C225.356 75.5291 225.287 75.7937 225.15 76.0647C225.013 76.3357 224.846 76.5341 224.648 76.66Z" fill="#002824"/>
<path d="M226.888 73.0436V83.9223L225.781 84.627V73.7483L226.888 73.0436Z" fill="#002824"/>
<path d="M229.207 81.6408L226.89 76.7823L228.123 75.9974L229.812 79.5568L231.468 73.8685L232.69 73.0911L229.162 85.3208L227.94 86.0983L229.207 81.6408Z" fill="#002824"/>
<path d="M240.958 67.8291V74.9673L240.022 75.5632L239.85 74.8527C239.66 75.3017 239.417 75.705 239.12 76.0628C238.823 76.4207 238.522 76.6965 238.218 76.8901C237.837 77.1324 237.481 77.2619 237.15 77.279C236.819 77.2959 236.53 77.2142 236.283 77.0339C236.035 76.8535 235.839 76.5809 235.695 76.216C235.55 75.8511 235.478 75.4102 235.478 74.8935C235.478 74.3768 235.55 73.8441 235.695 73.295C235.839 72.7459 236.035 72.2238 236.283 71.7286C236.53 71.2334 236.819 70.7835 237.15 70.3792C237.481 69.9747 237.837 69.6514 238.218 69.4091C238.522 69.2153 238.815 69.1058 239.097 69.0806C239.378 69.0555 239.63 69.1365 239.85 69.3239L240.022 68.425L240.958 67.8291ZM238.218 75.6085C238.438 75.4679 238.648 75.2701 238.846 75.0152C239.044 74.76 239.215 74.4747 239.359 74.1591C239.504 73.8435 239.618 73.5101 239.702 73.1587C239.786 72.8073 239.828 72.4629 239.828 72.1251C239.828 71.7873 239.786 71.496 239.702 71.2513C239.618 71.0067 239.504 70.8185 239.359 70.687C239.215 70.5555 239.044 70.4882 238.846 70.4849C238.648 70.4817 238.438 70.5503 238.218 70.6908C237.997 70.8314 237.788 71.029 237.59 71.2841C237.392 71.5392 237.221 71.8245 237.076 72.14C236.931 72.4556 236.817 72.789 236.733 73.1404C236.65 73.4916 236.608 73.8362 236.608 74.174C236.608 74.5117 236.65 74.8031 236.733 75.0477C236.817 75.2924 236.931 75.4806 237.076 75.6121C237.221 75.7436 237.392 75.8109 237.59 75.8141C237.787 75.8173 237.997 75.7488 238.218 75.6083V75.6085Z" fill="#002824"/>
<path d="M243.909 71.5995C243.977 71.4764 244.038 71.3482 244.092 71.2149C244.145 71.0816 244.172 70.9505 244.172 70.8212C244.172 70.6622 244.128 70.556 244.04 70.5024C243.953 70.4489 243.846 70.4247 243.721 70.4302C243.595 70.4356 243.464 70.4619 243.327 70.5096C243.19 70.557 243.076 70.5948 242.984 70.6232C242.733 70.7036 242.497 70.7569 242.276 70.783C242.056 70.8094 241.863 70.7925 241.7 70.7328C241.536 70.6728 241.407 70.5617 241.312 70.3986C241.216 70.2356 241.169 70.0001 241.169 69.6921C241.169 69.404 241.222 69.0994 241.327 68.7794C241.433 68.4581 241.574 68.1451 241.751 67.8387C241.928 67.5323 242.135 67.2464 242.375 66.9794C242.613 66.7138 242.866 66.4957 243.133 66.326C243.369 66.1758 243.593 66.0777 243.806 66.0339C244.019 65.9876 244.211 65.9896 244.383 66.0345C244.554 66.0819 244.699 66.1786 244.816 66.3246C244.934 66.4705 245.012 66.6643 245.05 66.9082L244.057 67.8533C244.012 67.6439 243.913 67.5081 243.76 67.4462C243.608 67.3841 243.399 67.4378 243.132 67.6075C243.041 67.6656 242.946 67.7436 242.847 67.8413C242.748 67.939 242.657 68.0494 242.573 68.1722C242.489 68.295 242.419 68.4243 242.362 68.56C242.305 68.6931 242.276 68.8256 242.276 68.9547C242.276 69.0938 242.308 69.1925 242.373 69.2506C242.438 69.3087 242.516 69.3411 242.607 69.3475C242.699 69.354 242.797 69.3407 242.904 69.3126C243.011 69.2844 243.11 69.2563 243.201 69.2279C243.604 69.1004 243.939 69.0263 244.206 69.0058C244.472 68.9852 244.685 69.0136 244.845 69.0882C245.005 69.1654 245.117 69.29 245.182 69.4625C245.246 69.635 245.279 69.8528 245.279 70.121C245.279 70.4388 245.224 70.7722 245.113 71.118C245.003 71.4664 244.853 71.8029 244.659 72.13C244.464 72.4547 244.234 72.7603 243.964 73.0464C243.694 73.3327 243.405 73.5738 243.092 73.7724C242.622 74.0716 242.202 74.1876 241.835 74.1184C241.466 74.0502 241.218 73.803 241.089 73.3785L242.025 72.2314C242.147 72.5016 242.303 72.6383 242.493 72.6413C242.683 72.6443 242.9 72.5683 243.144 72.4133C243.448 72.2195 243.703 71.9479 243.909 71.5987L243.909 71.5995Z" fill="#002824"/>
<g clip-path="url(#clip1_144_141)">
<path d="M416.307 49.5604L413.378 48.3449L413.619 46.8912L421.094 49.9934L420.853 51.447L417.909 50.2251L416.331 59.7355L414.729 59.0707L416.307 49.5604Z" fill="#002824"/>
<path d="M425.63 57.1485C425.564 57.0881 425.498 57.0275 425.432 56.9671C425.374 56.9212 425.306 56.871 425.228 56.8166C425.15 56.7622 425.066 56.7161 424.974 56.678C424.679 56.5556 424.396 56.4907 424.126 56.483C423.855 56.4754 423.615 56.5161 423.405 56.6051C423.194 56.6941 423.017 56.8272 422.873 57.0046C422.73 57.1819 422.638 57.3943 422.597 57.6417L421.853 62.0272L420.373 61.4131L421.602 54.0059L422.777 54.4934L422.946 55.4396C423.199 55.2251 423.505 55.0961 423.866 55.0529C424.226 55.0096 424.656 55.0914 425.154 55.2982C425.48 55.4332 425.843 55.6338 426.245 55.8995L425.63 57.1485Z" fill="#002824"/>
<path d="M433.821 59.0766L432.592 66.484L431.341 65.9647L431.253 65.0193C430.943 65.2539 430.574 65.3766 430.149 65.3873C429.723 65.398 429.307 65.3189 428.9 65.1501C428.391 64.939 427.933 64.6412 427.523 64.2566C427.114 63.872 426.774 63.4357 426.501 62.9481C426.229 62.4604 426.036 61.9393 425.921 61.3849C425.806 60.8304 425.793 60.2851 425.882 59.7492C425.971 59.2131 426.152 58.748 426.424 58.354C426.696 57.96 427.026 57.6563 427.415 57.4429C427.803 57.2295 428.236 57.1143 428.711 57.0967C429.187 57.0793 429.679 57.1761 430.188 57.3871C430.594 57.556 430.973 57.7984 431.322 58.1143C431.672 58.4303 431.966 58.8196 432.205 59.2821L432.57 58.5576L433.821 59.0766ZM429.12 63.8202C429.415 63.9426 429.706 63.9916 429.993 63.9673C430.279 63.943 430.539 63.855 430.77 63.7032C431.002 63.5514 431.199 63.3441 431.362 63.0812C431.526 62.8184 431.636 62.5117 431.694 62.1612C431.753 61.8107 431.751 61.4576 431.691 61.1018C431.63 60.7461 431.523 60.4122 431.368 60.1001C431.213 59.7878 431.015 59.5099 430.772 59.2662C430.53 59.0224 430.262 58.8394 429.967 58.717C429.672 58.5946 429.381 58.5456 429.094 58.5698C428.808 58.594 428.548 58.6822 428.317 58.834C428.085 58.9858 427.888 59.1931 427.725 59.4559C427.561 59.7187 427.451 60.0254 427.393 60.3759C427.335 60.7264 427.336 61.0795 427.396 61.4352C427.457 61.791 427.564 62.1249 427.719 62.437C427.874 62.7492 428.072 63.027 428.315 63.2708C428.557 63.5146 428.825 63.6978 429.12 63.82L429.12 63.8202Z" fill="#002824"/>
<path d="M435.23 67.579L433.751 66.9649L434.98 59.5575L436.154 60.045L436.352 60.8211C436.635 60.6853 436.962 60.6118 437.334 60.6007C437.705 60.5895 438.094 60.6683 438.501 60.8373C438.766 60.947 439.059 61.1128 439.381 61.3344C439.703 61.5562 439.99 61.8407 440.242 62.1878C440.494 62.5349 440.686 62.9506 440.818 63.435C440.949 63.9193 440.962 64.4811 440.856 65.1203L440.112 69.6048L438.709 69.0223L439.455 64.5222C439.508 64.2026 439.505 63.912 439.445 63.6502C439.385 63.3885 439.287 63.158 439.152 62.9585C439.017 62.759 438.854 62.5898 438.666 62.4507C438.477 62.3116 438.276 62.1979 438.062 62.1093C437.899 62.0418 437.709 61.9957 437.49 61.9711C437.271 61.9464 437.059 61.9658 436.852 62.0289C436.646 62.0921 436.462 62.203 436.3 62.3616C436.138 62.5202 436.031 62.7541 435.98 63.0634L435.231 67.579L435.23 67.579Z" fill="#002824"/>
<path d="M445.265 70.0905C445.37 70.0461 445.467 69.987 445.555 69.9135C445.644 69.8399 445.699 69.7361 445.721 69.6022C445.749 69.4371 445.713 69.2737 445.615 69.1118C445.517 68.9498 445.39 68.7955 445.235 68.6485C445.08 68.5016 444.915 68.3695 444.739 68.2522C444.562 68.1349 444.416 68.0355 444.299 67.954C443.977 67.7322 443.678 67.5009 443.403 67.26C443.128 67.0191 442.895 66.7681 442.705 66.5072C442.514 66.2464 442.375 65.9736 442.286 65.6888C442.197 65.4041 442.18 65.102 442.233 64.7823C442.282 64.4833 442.4 64.232 442.583 64.0271C442.769 63.8233 442.996 63.6694 443.266 63.5666C443.536 63.4637 443.839 63.4188 444.179 63.4333C444.517 63.4466 444.865 63.5277 445.221 63.6754C445.536 63.8063 445.828 63.9772 446.097 64.1906C446.367 64.4017 446.602 64.6371 446.804 64.8918C447.006 65.1491 447.167 65.4252 447.286 65.72C447.406 66.0148 447.468 66.3106 447.473 66.6101L446.092 66.3841C446.072 66.1114 445.974 65.8504 445.798 65.6009C445.622 65.3516 445.356 65.153 445 65.0053C444.878 64.9547 444.748 64.9199 444.609 64.9012C444.471 64.8823 444.34 64.8859 444.216 64.9116C444.092 64.9373 443.984 64.9859 443.89 65.0573C443.798 65.1262 443.74 65.229 443.717 65.3629C443.693 65.5072 443.716 65.6489 443.786 65.7879C443.855 65.9268 443.945 66.0551 444.056 66.1728C444.167 66.2903 444.291 66.3968 444.426 66.4972C444.562 66.5975 444.688 66.6884 444.805 66.7701C445.322 67.1278 445.745 67.4579 446.075 67.7601C446.406 68.0625 446.662 68.3508 446.846 68.6224C447.028 68.8966 447.144 69.1625 447.194 69.4201C447.244 69.6775 447.246 69.943 447.2 70.2214C447.145 70.5513 447.02 70.83 446.825 71.0548C446.63 71.2824 446.387 71.449 446.093 71.5527C445.799 71.6538 445.464 71.691 445.083 71.6598C444.703 71.6287 444.307 71.5275 443.89 71.3545C443.262 71.0939 442.726 70.7035 442.287 70.1853C441.846 69.6663 441.585 69.1089 441.5 68.5114L442.845 68.4584C442.948 68.8867 443.116 69.218 443.349 69.4525C443.582 69.6869 443.861 69.8716 444.187 70.0067C444.593 70.1755 444.953 70.2036 445.265 70.0907L445.265 70.0905Z" fill="#002824"/>
<path d="M448.898 73.2512L449.906 67.1739L448.655 66.6548L448.825 65.6316L450.127 65.844L450.276 64.947C450.363 64.4213 450.505 63.9926 450.701 63.6609C450.898 63.3291 451.131 63.0871 451.4 62.9347C451.67 62.7822 451.962 62.7078 452.277 62.7117C452.592 62.7155 452.917 62.7871 453.253 62.9263C453.67 63.0993 454.077 63.3621 454.475 63.7147L454.293 64.8126C453.946 64.5473 453.64 64.3598 453.375 64.25C452.958 64.077 452.614 64.0718 452.343 64.2346C452.071 64.3973 451.888 64.7623 451.794 65.3293L451.607 66.4583L453.865 67.3952L453.644 68.7251L451.386 67.7882L450.378 73.8655L448.898 73.2513L448.898 73.2512Z" fill="#002824"/>
<path d="M456.754 76.7097C456.225 76.4902 455.746 76.1838 455.316 75.7909C454.887 75.3978 454.528 74.9543 454.241 74.4603C453.953 73.9662 453.75 73.441 453.63 72.8845C453.51 72.3279 453.495 71.7816 453.584 71.2455C453.673 70.7094 453.851 70.2433 454.117 69.8472C454.384 69.4511 454.707 69.1442 455.085 68.9266C455.464 68.7091 455.883 68.5884 456.344 68.5647C456.804 68.541 457.279 68.6303 457.767 68.833C458.265 69.0398 458.711 69.3184 459.104 69.6689C459.497 70.0192 459.818 70.4445 460.066 70.9442C460.315 71.444 460.478 72.016 460.556 72.66C460.634 73.304 460.607 74.0227 460.475 74.8166L455.045 72.5628C455.071 72.8604 455.142 73.1568 455.256 73.4521C455.37 73.7475 455.517 74.0234 455.697 74.28C455.878 74.5367 456.09 74.7652 456.334 74.9656C456.578 75.166 456.842 75.3253 457.127 75.4435C457.513 75.604 457.884 75.6805 458.238 75.6733C458.593 75.6661 458.906 75.5926 459.18 75.4525L459.941 76.7602C459.525 76.9734 459.043 77.0816 458.493 77.0849C457.944 77.0883 457.364 76.9634 456.754 76.7101L456.754 76.7097ZM457.541 70.1937C457.307 70.0965 457.078 70.0512 456.854 70.0575C456.631 70.0638 456.416 70.1124 456.211 70.2035C456.005 70.2946 455.82 70.4271 455.655 70.6011C455.491 70.7752 455.356 70.9836 455.25 71.2264L459.11 72.828C459.13 72.5722 459.114 72.3119 459.06 72.0471C459.006 71.7823 458.912 71.5311 458.777 71.2935C458.643 71.0558 458.474 70.8427 458.272 70.6541C458.069 70.4653 457.826 70.312 457.541 70.1938L457.541 70.1937Z" fill="#002824"/>
<path d="M466.495 74.108C466.429 74.0474 466.363 73.987 466.297 73.9266C466.239 73.8807 466.171 73.8305 466.093 73.7761C466.016 73.7217 465.931 73.6756 465.839 73.6375C465.544 73.5151 465.262 73.4502 464.991 73.4426C464.721 73.4349 464.48 73.4756 464.27 73.5646C464.059 73.6536 463.882 73.7867 463.739 73.9641C463.595 74.1414 463.503 74.3538 463.462 74.6013L462.718 78.9867L461.238 78.3726L462.467 70.9652L463.642 71.4527L463.811 72.399C464.064 72.1844 464.371 72.0555 464.731 72.0122C465.091 71.969 465.521 72.0509 466.019 72.2576C466.345 72.3926 466.708 72.5931 467.11 72.859L466.495 74.108L466.495 74.108Z" fill="#002824"/>
<path d="M479.105 81.6387C479.012 82.1954 478.821 82.6753 478.532 83.0785C478.242 83.4817 477.889 83.7923 477.472 84.0107C477.055 84.2289 476.591 84.3445 476.077 84.3575C475.564 84.3705 475.033 84.263 474.484 84.0351C473.935 83.8071 473.439 83.4883 472.996 83.0787C472.553 82.6689 472.184 82.2073 471.889 81.6936C471.594 81.1799 471.382 80.6349 471.255 80.0587C471.128 79.4825 471.11 78.916 471.203 78.3593L472.378 71.2768L473.979 71.9415L472.804 79.024C472.75 79.354 472.759 79.6937 472.831 80.0433C472.903 80.3929 473.025 80.7271 473.2 81.0475C473.375 81.3681 473.596 81.6555 473.861 81.9088C474.129 82.163 474.423 82.3566 474.748 82.4918C475.074 82.6268 475.387 82.6854 475.694 82.6696C475.999 82.6526 476.278 82.573 476.531 82.4298C476.783 82.2864 476.992 82.0896 477.163 81.8412C477.335 81.5929 477.448 81.3038 477.503 80.9739L478.678 73.8913L480.28 74.556L479.105 81.6386L479.105 81.6387Z" fill="#002824"/>
<path d="M487.59 86.0195C487.513 86.4834 487.35 86.8758 487.101 87.1968C486.852 87.5178 486.525 87.7538 486.119 87.905C485.319 88.2117 484.369 88.1371 483.271 87.6814C482.416 87.3268 481.672 86.8308 481.039 86.1907C480.406 85.5531 479.976 84.8678 479.75 84.1374L481.225 83.9896C481.367 84.4451 481.643 84.8651 482.052 85.2498C482.461 85.6344 482.95 85.9449 483.519 86.1813C484.994 86.7934 485.826 86.5272 486.017 85.3803C486.052 85.1638 486.045 84.9625 485.995 84.7762C485.944 84.59 485.854 84.3955 485.724 84.1982C485.409 83.737 484.799 83.1864 483.894 82.5465C483.349 82.1659 482.892 81.8055 482.524 81.4656C482.157 81.1232 481.861 80.7798 481.636 80.433C481.083 79.6412 480.878 78.8099 481.022 77.9439C481.094 77.511 481.245 77.1386 481.475 76.8318C481.706 76.5253 481.996 76.2961 482.348 76.1418C482.709 75.9943 483.113 75.9385 483.558 75.9744C484.003 76.0105 484.48 76.1341 484.988 76.345C485.731 76.653 486.391 77.0812 486.968 77.6294C487.546 78.1775 487.954 78.7822 488.192 79.443L486.828 79.7034C486.593 79.2201 486.294 78.8235 485.933 78.5138C485.571 78.2039 485.177 77.9603 484.75 77.7831C484.444 77.6565 484.156 77.592 483.885 77.5896C483.614 77.5871 483.38 77.6223 483.183 77.6949C483.02 77.7595 482.89 77.8684 482.794 78.0213C482.698 78.1743 482.633 78.3538 482.599 78.5601C482.577 78.6941 482.574 78.8391 482.592 78.9952C482.61 79.1512 482.682 79.3356 482.81 79.5485C482.938 79.7612 483.137 79.9985 483.409 80.2601C483.681 80.5216 484.06 80.825 484.547 81.17C485.131 81.5779 485.617 81.9585 486.004 82.312C486.391 82.6655 486.706 83.025 486.95 83.3906C487.529 84.2258 487.742 85.1022 487.59 86.0198L487.59 86.0195Z" fill="#002824"/>
<path d="M488.452 89.6664L490.271 78.7025L494.107 80.2947C494.89 80.6196 495.555 81.05 496.108 81.5876C496.66 82.1253 497.093 82.724 497.413 83.3855C497.732 84.047 497.938 84.7551 498.036 85.5117C498.133 86.2684 498.119 87.0229 497.994 87.7755C497.868 88.5383 497.64 89.2069 497.311 89.7811C496.982 90.3554 496.586 90.8108 496.117 91.1453C495.649 91.4798 495.126 91.6789 494.553 91.7441C493.977 91.8082 493.387 91.7145 492.777 91.4614L488.452 89.6665L488.452 89.6664ZM492.484 89.7364C493.064 89.977 493.575 90.0734 494.018 90.0257C494.46 89.978 494.844 89.8287 495.168 89.5776C495.492 89.3265 495.756 88.984 495.958 88.5501C496.161 88.1161 496.305 87.6364 496.393 87.1105C496.48 86.5848 496.503 86.0517 496.462 85.5113C496.421 84.9709 496.302 84.4613 496.104 83.9826C495.907 83.5038 495.62 83.0682 495.245 82.6756C494.87 82.283 494.393 81.9664 493.813 81.7259L491.632 80.8205L490.303 88.8308L492.484 89.7361L492.484 89.7364Z" fill="#002824"/>
<path d="M503.747 94.576C504.336 94.8208 504.907 94.9033 505.458 94.8236C506.01 94.7439 506.497 94.5387 506.922 94.208L507.856 95.7526C507.27 96.1377 506.598 96.3711 505.84 96.4531C505.082 96.5352 504.301 96.4095 503.498 96.076C502.765 95.7722 502.099 95.3357 501.497 94.7665C500.896 94.1974 500.399 93.5586 500.003 92.8488C499.607 92.139 499.325 91.3828 499.156 90.5801C498.988 89.7774 498.966 88.994 499.092 88.2312C499.22 87.458 499.483 86.7903 499.878 86.227C500.274 85.6637 500.754 85.2266 501.319 84.9157C501.884 84.6048 502.516 84.4345 503.216 84.4055C503.917 84.3767 504.633 84.5142 505.365 84.818C506.047 85.1008 506.667 85.5045 507.227 86.0288C507.787 86.5531 508.269 87.136 508.673 87.7776L507.525 88.6068C507.249 88.1066 506.907 87.6478 506.498 87.23C506.089 86.8124 505.63 86.498 505.122 86.287C504.603 86.0718 504.099 85.9811 503.61 86.0149C503.12 86.0487 502.676 86.1867 502.277 86.4289C501.878 86.671 501.538 87.001 501.257 87.4187C500.976 87.8365 500.788 88.3287 500.694 88.8957C500.6 89.4628 500.611 90.0373 500.726 90.6197C500.841 91.2021 501.036 91.751 501.309 92.2665C501.582 92.7821 501.927 93.2421 502.344 93.6465C502.76 94.0509 503.228 94.3606 503.747 94.5758L503.747 94.576Z" fill="#002824"/>
<path d="M509.266 100.42L508.03 99.9075L509.165 96.3122L510.889 97.0276L509.266 100.42Z" fill="#002824"/>
<path d="M524.827 96.8453L523.598 104.252L522.347 103.733L522.259 102.788C521.949 103.023 521.58 103.145 521.155 103.156C520.729 103.167 520.313 103.088 519.906 102.919C519.397 102.708 518.939 102.41 518.53 102.025C518.12 101.641 517.78 101.205 517.507 100.717C517.235 100.229 517.042 99.708 516.927 99.1536C516.812 98.5991 516.8 98.0538 516.888 97.5177C516.977 96.9816 517.158 96.5166 517.43 96.1226C517.702 95.7286 518.032 95.4249 518.421 95.2115C518.809 94.9981 519.242 94.8828 519.717 94.8654C520.193 94.848 520.685 94.9448 521.194 95.1558C521.6 95.3246 521.979 95.5671 522.329 95.883C522.678 96.199 522.972 96.5882 523.211 97.0508L523.576 96.3262L524.827 96.8454L524.827 96.8453ZM520.126 101.589C520.421 101.711 520.712 101.76 520.999 101.736C521.285 101.712 521.545 101.624 521.776 101.472C522.008 101.32 522.205 101.113 522.369 100.85C522.532 100.587 522.642 100.281 522.701 99.93C522.759 99.5795 522.757 99.2264 522.697 98.8707C522.636 98.5149 522.529 98.181 522.374 97.8689C522.219 97.5568 522.021 97.2787 521.778 97.0351C521.536 96.7914 521.268 96.6083 520.973 96.4858C520.678 96.3634 520.387 96.3144 520.1 96.3386C519.814 96.3629 519.554 96.451 519.323 96.6028C519.091 96.7544 518.894 96.9619 518.731 97.2247C518.567 97.4875 518.457 97.7942 518.399 98.1447C518.341 98.4952 518.342 98.8483 518.402 99.2041C518.463 99.5598 518.57 99.8937 518.725 100.206C518.88 100.518 519.079 100.796 519.321 101.04C519.563 101.283 519.831 101.467 520.126 101.589L520.126 101.589Z" fill="#002824"/>
<path d="M526.237 105.348L524.757 104.734L525.986 97.3262L527.16 97.8137L527.358 98.5898C527.641 98.454 527.968 98.3805 528.34 98.3693C528.711 98.3582 529.1 98.437 529.507 98.6058C529.772 98.7155 530.065 98.8813 530.387 99.103C530.709 99.3248 530.996 99.6092 531.248 99.9563C531.5 100.303 531.692 100.719 531.824 101.203C531.956 101.688 531.968 102.25 531.862 102.889L531.118 107.373L529.715 106.791L530.461 102.291C530.514 101.971 530.511 101.681 530.451 101.419C530.391 101.157 530.294 100.926 530.158 100.727C530.023 100.528 529.861 100.358 529.672 100.219C529.483 100.08 529.282 99.9666 529.068 99.8779C528.906 99.8104 528.715 99.7642 528.496 99.7396C528.277 99.7149 528.065 99.7341 527.859 99.7973C527.652 99.8605 527.468 99.9715 527.306 100.13C527.144 100.289 527.037 100.522 526.986 100.832L526.237 105.347L526.237 105.348Z" fill="#002824"/>
<path d="M541.472 99.6046L539.6 110.893L538.425 110.406L538.248 109.506C537.903 109.683 537.529 109.778 537.125 109.792C536.72 109.806 536.274 109.711 535.786 109.509C535.277 109.298 534.826 109.003 534.432 108.625C534.038 108.247 533.713 107.817 533.456 107.335C533.198 106.854 533.02 106.339 532.921 105.791C532.822 105.243 532.816 104.701 532.905 104.165C532.994 103.629 533.167 103.161 533.424 102.76C533.68 102.36 533.995 102.05 534.369 101.83C534.742 101.61 535.159 101.489 535.62 101.465C536.08 101.441 536.565 101.535 537.073 101.746C537.582 101.957 538.01 102.225 538.358 102.552C538.706 102.878 538.992 103.253 539.215 103.676L539.992 98.9903L541.472 99.6045L541.472 99.6046ZM536.121 108.226C536.426 108.353 536.719 108.42 536.995 108.424C537.274 108.43 537.529 108.368 537.763 108.238C537.996 108.109 538.198 107.909 538.363 107.636C538.528 107.363 538.646 107.01 538.718 106.577C538.795 106.113 538.804 105.698 538.745 105.332C538.686 104.966 538.572 104.64 538.406 104.357C538.241 104.073 538.037 103.834 537.789 103.638C537.545 103.443 537.267 103.281 536.962 103.154C536.667 103.032 536.374 102.979 536.088 102.998C535.8 103.016 535.542 103.099 535.311 103.246C535.08 103.392 534.88 103.596 534.717 103.859C534.554 104.122 534.443 104.428 534.385 104.779C534.327 105.129 534.328 105.482 534.389 105.838C534.449 106.194 534.56 106.529 534.714 106.841C534.869 107.153 535.068 107.431 535.312 107.676C535.555 107.92 535.826 108.104 536.12 108.226L536.121 108.226Z" fill="#002824"/>
<path d="M418.854 71.5584C418.761 72.115 418.57 72.595 418.281 72.9982C417.991 73.4013 417.638 73.7121 417.221 73.9304C416.804 74.1486 416.34 74.2642 415.827 74.2772C415.313 74.2901 414.782 74.1826 414.233 73.9548C413.684 73.7268 413.188 73.408 412.745 72.9984C412.302 72.5886 411.933 72.127 411.638 71.6133C411.343 71.0996 411.131 70.5546 411.004 69.9784C410.877 69.4021 410.859 68.8357 410.952 68.279L412.127 61.1965L413.728 61.8612L412.553 68.9437C412.499 69.2736 412.508 69.6134 412.58 69.963C412.653 70.3125 412.774 70.6466 412.949 70.9672C413.124 71.2878 413.345 71.5752 413.61 71.8284C413.878 72.0827 414.172 72.2763 414.498 72.4115C414.823 72.5465 415.137 72.6051 415.444 72.5892C415.748 72.5723 416.028 72.4927 416.28 72.3495C416.532 72.206 416.741 72.0093 416.913 71.7609C417.084 71.5126 417.197 71.2235 417.252 70.8935L418.427 63.811L420.029 64.4757L418.854 71.5582L418.854 71.5584Z" fill="#002824"/>
<path d="M427.339 75.9393C427.262 76.4032 427.099 76.7956 426.85 77.1166C426.601 77.4376 426.274 77.6736 425.868 77.8248C425.067 78.1315 424.118 78.0569 423.019 77.6012C422.165 77.2466 421.421 76.7506 420.788 76.1105C420.155 75.4729 419.725 74.7876 419.498 74.0572L420.974 73.9092C421.116 74.3649 421.391 74.7849 421.8 75.1695C422.21 75.5541 422.699 75.8647 423.268 76.101C424.743 76.713 425.575 76.4468 425.765 75.3C425.801 75.0834 425.794 74.8821 425.743 74.6959C425.693 74.5096 425.603 74.3151 425.473 74.1179C425.158 73.6566 424.548 73.1061 423.643 72.4662C423.098 72.0855 422.641 71.7252 422.273 71.3853C421.906 71.0429 421.61 70.6996 421.385 70.3528C420.831 69.561 420.627 68.7297 420.771 67.8637C420.843 67.4308 420.994 67.0582 421.224 66.7516C421.454 66.4449 421.745 66.2159 422.097 66.0615C422.458 65.9141 422.862 65.8583 423.307 65.8942C423.752 65.9303 424.229 66.0537 424.737 66.2648C425.48 66.5729 426.14 67.001 426.717 67.5492C427.295 68.0975 427.703 68.702 427.941 69.3628L426.577 69.6232C426.342 69.1401 426.043 68.7435 425.682 68.4336C425.32 68.1237 424.926 67.8801 424.499 67.7029C424.193 67.5763 423.905 67.5118 423.634 67.5094C423.362 67.5069 423.128 67.5421 422.932 67.6147C422.769 67.6793 422.639 67.7882 422.543 67.9411C422.447 68.0941 422.382 68.2737 422.348 68.4799C422.326 68.614 422.323 68.7589 422.341 68.915C422.359 69.071 422.431 69.2554 422.559 69.4683C422.687 69.681 422.886 69.9183 423.158 70.1798C423.43 70.4414 423.809 70.7447 424.296 71.0896C424.88 71.4976 425.366 71.8783 425.753 72.2317C426.14 72.5852 426.455 72.9447 426.699 73.3102C427.278 74.1454 427.491 75.022 427.339 75.9395L427.339 75.9393Z" fill="#002824"/>
<path d="M428.201 79.5862L430.02 68.6223L433.856 70.2145C434.639 70.5394 435.304 70.9698 435.856 71.5074C436.409 72.0451 436.842 72.6436 437.162 73.3053C437.481 73.9668 437.687 74.6749 437.784 75.4315C437.882 76.1881 437.868 76.9427 437.743 77.6953C437.617 78.4581 437.389 79.1267 437.06 79.7009C436.731 80.2752 436.335 80.7306 435.866 81.0649C435.398 81.3995 434.875 81.5986 434.302 81.6637C433.726 81.7277 433.136 81.6342 432.525 81.3811L428.201 79.5862L428.201 79.5862ZM432.233 79.6562C432.813 79.8969 433.324 79.9934 433.767 79.9457C434.209 79.898 434.593 79.7487 434.917 79.4976C435.241 79.2464 435.505 78.9039 435.707 78.4701C435.91 78.0362 436.054 77.5563 436.142 77.0306C436.229 76.5049 436.252 75.9717 436.211 75.4314C436.17 74.8911 436.051 74.3816 435.853 73.9027C435.655 73.4239 435.369 72.9883 434.994 72.5957C434.619 72.2031 434.141 71.8865 433.562 71.646L431.38 70.7406L430.052 78.7509L432.233 79.6562L432.233 79.6562Z" fill="#002824"/>
<path d="M441.89 75.1024L438.962 73.8869L439.203 72.4332L446.678 75.5355L446.436 76.9892L443.492 75.7672L441.915 85.2775L440.313 84.6128L441.89 75.1024Z" fill="#002824"/>
<path d="M452.958 90.0594C452.45 89.8483 451.991 89.5505 451.582 89.1659C451.173 88.7813 450.832 88.3451 450.56 87.8574C450.288 87.3697 450.094 86.8486 449.98 86.2942C449.865 85.7397 449.852 85.1944 449.941 84.6583C450.03 84.1222 450.21 83.6572 450.482 83.2632C450.754 82.8692 451.084 82.5655 451.473 82.3521C451.862 82.1387 452.294 82.0234 452.77 82.006C453.246 81.9886 453.738 82.0854 454.246 82.2964C454.745 82.5033 455.201 82.8001 455.615 83.1868C456.029 83.5735 456.372 84.0107 456.645 84.4984C456.917 84.9862 457.111 85.5072 457.225 86.0616C457.34 86.6161 457.352 87.1612 457.263 87.6973C457.175 88.2334 456.994 88.6985 456.722 89.0925C456.45 89.4865 456.12 89.7902 455.731 90.0036C455.343 90.217 454.908 90.3313 454.427 90.3465C453.946 90.3618 453.457 90.2661 452.958 90.0592L452.958 90.0594ZM454.018 83.6232C453.723 83.5008 453.43 83.4507 453.143 83.4749C452.856 83.4992 452.592 83.5852 452.356 83.7297C452.12 83.8742 451.918 84.0767 451.755 84.3421C451.591 84.6049 451.48 84.9143 451.422 85.2648C451.364 85.6153 451.365 85.971 451.425 86.3267C451.486 86.685 451.598 87.021 451.758 87.3353C451.918 87.6495 452.121 87.9323 452.363 88.1759C452.605 88.4196 452.876 88.6039 453.171 88.7262C453.466 88.8486 453.76 88.8987 454.046 88.8744C454.335 88.8513 454.595 88.7605 454.827 88.6089C455.058 88.4571 455.258 88.2509 455.422 87.9854C455.585 87.7226 455.696 87.4132 455.754 87.0627C455.812 86.7122 455.812 86.3565 455.751 86.0008C455.691 85.6425 455.58 85.31 455.425 85.0031C455.269 84.6961 455.071 84.4181 454.826 84.1733C454.584 83.9295 454.313 83.7455 454.018 83.623L454.018 83.6232Z" fill="#002824"/>
<path d="M458.969 92.3553L457.489 91.7412L458.718 84.334L459.893 84.8215L460.09 85.5976C460.373 85.4618 460.701 85.3883 461.072 85.3771C461.444 85.366 461.833 85.4448 462.24 85.6136C462.504 85.7233 462.797 85.8891 463.119 86.1108C463.441 86.3326 463.728 86.617 463.98 86.9641C464.233 87.3112 464.424 87.727 464.556 88.2113C464.688 88.6956 464.701 89.2574 464.594 89.8967L463.85 94.3811L462.447 93.7988L463.193 89.2987C463.247 88.9791 463.243 88.6885 463.183 88.4267C463.123 88.1649 463.026 87.9343 462.89 87.7349C462.755 87.5354 462.593 87.3663 462.404 87.2272C462.215 87.0881 462.014 86.9744 461.8 86.8857C461.638 86.8182 461.447 86.772 461.228 86.7474C461.009 86.7227 460.797 86.7421 460.591 86.8051C460.385 86.8683 460.2 86.9793 460.038 87.1378C459.876 87.2964 459.769 87.5303 459.718 87.8396L458.969 92.3552L458.969 92.3553Z" fill="#002824"/>
<path d="M477.481 92.1209L476.252 99.5281L475.001 99.0091L474.914 98.0636C474.603 98.2984 474.235 98.4211 473.809 98.4317C473.383 98.4424 472.967 98.3632 472.56 98.1944C472.052 97.9833 471.593 97.6855 471.184 97.3009C470.775 96.9163 470.434 96.4801 470.162 95.9924C469.889 95.5047 469.696 94.9836 469.581 94.4292C469.467 93.8747 469.454 93.3295 469.543 92.7933C469.632 92.2572 469.812 91.7922 470.084 91.3982C470.356 91.0042 470.686 90.7005 471.075 90.4871C471.463 90.2737 471.896 90.1584 472.371 90.141C472.847 90.1236 473.339 90.2204 473.848 90.4314C474.255 90.6003 474.633 90.8427 474.983 91.1586C475.333 91.4746 475.627 91.8639 475.865 92.3264L476.23 91.6019L477.481 92.1211L477.481 92.1209ZM472.781 96.8643C473.076 96.9868 473.367 97.0358 473.653 97.0116C473.94 96.9873 474.199 96.8993 474.431 96.7475C474.662 96.5957 474.86 96.3884 475.023 96.1256C475.186 95.8628 475.297 95.5561 475.355 95.2056C475.413 94.8551 475.412 94.502 475.351 94.1463C475.291 93.7905 475.183 93.4566 475.028 93.1445C474.873 92.8324 474.675 92.5543 474.433 92.3107C474.191 92.0669 473.922 91.8839 473.627 91.7615C473.332 91.639 473.041 91.59 472.755 91.6143C472.468 91.6385 472.209 91.7265 471.977 91.8783C471.745 92.0301 471.548 92.2374 471.385 92.5002C471.222 92.763 471.111 93.0697 471.053 93.4202C470.995 93.7707 470.996 94.1238 471.057 94.4795C471.117 94.8353 471.225 95.1692 471.38 95.4814C471.534 95.7935 471.733 96.0715 471.975 96.3153C472.217 96.5589 472.486 96.7421 472.781 96.8645L472.781 96.8643Z" fill="#002824"/>
<path d="M480.87 89.3788L478.998 100.668L477.518 100.053L479.391 88.7647L480.87 89.3788Z" fill="#002824"/>
<path d="M483.784 90.5878L481.911 101.877L480.431 101.262L482.304 89.9737L483.784 90.5878Z" fill="#002824"/>
<path d="M490.682 105.715C490.153 105.496 489.674 105.189 489.244 104.796C488.815 104.403 488.456 103.96 488.169 103.465C487.881 102.971 487.677 102.446 487.558 101.89C487.438 101.333 487.423 100.787 487.512 100.251C487.601 99.7146 487.778 99.2485 488.045 98.8524C488.312 98.4563 488.635 98.1495 489.013 97.9319C489.392 97.7143 489.811 97.5937 490.272 97.57C490.732 97.5463 491.207 97.6356 491.695 97.8382C492.193 98.0451 492.639 98.3236 493.032 98.6741C493.425 99.0245 493.746 99.4497 493.994 99.9495C494.243 100.449 494.406 101.021 494.484 101.665C494.562 102.309 494.535 103.028 494.403 103.822L488.973 101.568C488.999 101.866 489.07 102.162 489.184 102.457C489.298 102.753 489.445 103.029 489.625 103.285C489.805 103.542 490.018 103.77 490.261 103.971C490.505 104.171 490.77 104.331 491.054 104.449C491.441 104.609 491.811 104.686 492.166 104.679C492.52 104.671 492.834 104.598 493.108 104.458L493.869 105.765C493.453 105.979 492.97 106.087 492.421 106.09C491.871 106.094 491.292 105.969 490.681 105.715L490.682 105.715ZM491.469 99.1989C491.235 99.1019 491.006 99.0564 490.782 99.0627C490.559 99.069 490.344 99.1176 490.139 99.2087C489.933 99.2998 489.748 99.4323 489.583 99.6064C489.419 99.7805 489.284 99.9889 489.178 100.232L493.038 101.833C493.058 101.578 493.042 101.317 492.988 101.052C492.934 100.788 492.84 100.537 492.705 100.299C492.571 100.061 492.402 99.8481 492.2 99.6593C491.997 99.4706 491.754 99.3173 491.469 99.1991L491.469 99.1989Z" fill="#002824"/>
<path d="M499.331 109.106L497.363 108.289L495.571 99.6285L497.173 100.293L498.606 107.185L501.994 102.294L503.596 102.959L499.331 109.106Z" fill="#002824"/>
<path d="M504.594 111.29L503.114 110.676L504.343 103.269L505.517 103.756L505.717 104.517C505.936 104.376 506.186 104.279 506.467 104.224C506.748 104.17 507.071 104.219 507.437 104.371C507.579 104.43 507.737 104.515 507.909 104.625C508.081 104.735 508.253 104.872 508.427 105.038C508.601 105.204 508.761 105.397 508.909 105.619C509.058 105.84 509.173 106.094 509.256 106.382C509.482 106.134 509.789 105.967 510.179 105.881C510.568 105.794 510.961 105.833 511.358 105.998C511.622 106.108 511.895 106.265 512.176 106.47C512.457 106.675 512.706 106.943 512.923 107.276C513.14 107.608 513.296 108.009 513.392 108.479C513.488 108.948 513.483 109.503 513.377 110.142L512.633 114.626L511.245 114.05L511.991 109.55C512.097 108.911 512.042 108.411 511.824 108.051C511.607 107.691 511.284 107.422 510.857 107.245C510.532 107.11 510.224 107.131 509.934 107.308C509.643 107.485 509.449 107.872 509.349 108.47L508.605 112.955L507.217 112.379L507.964 107.879C508.07 107.24 508.014 106.74 507.797 106.38C507.579 106.02 507.257 105.751 506.83 105.574C506.525 105.447 506.238 105.455 505.97 105.597C505.702 105.739 505.505 106.054 505.381 106.542L504.593 111.29L504.594 111.29Z" fill="#002824"/>
<path d="M411.256 87.6767C410.747 87.4656 410.288 87.1677 409.879 86.7832C409.47 86.3986 409.132 85.9633 408.862 85.4768C408.592 84.9902 408.401 84.4701 408.289 83.9169C408.177 83.3634 408.165 82.8183 408.253 82.2822C408.342 81.7461 408.523 81.2811 408.792 80.886C409.061 80.491 409.389 80.1862 409.775 79.9718C410.161 79.7573 410.591 79.6409 411.067 79.6234C411.543 79.606 412.035 79.7028 412.543 79.9139C413.133 80.1587 413.655 80.5185 414.109 80.9933C414.563 81.4682 414.919 82.0072 415.178 82.6104L414.004 82.9994C413.85 82.616 413.633 82.2749 413.351 81.976C413.069 81.6771 412.75 81.4538 412.394 81.3061C412.088 81.1795 411.788 81.1236 411.492 81.1385C411.196 81.1535 410.927 81.232 410.686 81.3745C410.446 81.5169 410.241 81.7184 410.073 81.9792C409.904 82.2398 409.791 82.5455 409.733 82.896C409.675 83.2465 409.679 83.6007 409.744 83.9585C409.81 84.3164 409.925 84.6534 410.09 84.9698C410.255 85.2863 410.464 85.5684 410.716 85.8164C410.968 86.0644 411.247 86.2517 411.552 86.3783C411.949 86.543 412.328 86.5845 412.689 86.5032C413.051 86.4218 413.363 86.2429 413.626 85.9664L414.484 87.2813C414.077 87.6411 413.589 87.8603 413.022 87.9388C412.455 88.0174 411.866 87.9301 411.255 87.6768L411.256 87.6767Z" fill="#002824"/>
<path d="M416.854 89.8018L415.374 89.1877L417.247 77.899L418.727 78.5131L417.967 83.0739C418.291 82.8775 418.614 82.7777 418.936 82.7734C419.257 82.7689 419.614 82.848 420.01 83.0127C420.519 83.2237 420.955 83.512 421.323 83.8799C421.689 84.2465 421.986 84.6647 422.213 85.1334C422.44 85.6021 422.585 86.1031 422.654 86.6386C422.722 87.174 422.712 87.7097 422.623 88.2458L422.01 91.9416L420.53 91.3275L421.144 87.6315C421.202 87.281 421.208 86.9311 421.163 86.5816C421.117 86.2321 421.03 85.9093 420.9 85.613C420.769 85.3165 420.606 85.0584 420.408 84.8389C420.211 84.6192 419.985 84.4567 419.731 84.3512C419.517 84.2626 419.297 84.2177 419.069 84.2168C418.841 84.2157 418.621 84.2764 418.411 84.3982C418.2 84.5203 418.01 84.7167 417.84 84.9878C417.67 85.2589 417.547 85.6213 417.472 86.0748L416.854 89.8017L416.854 89.8018Z" fill="#002824"/>
<path d="M431.476 87.9529L430.247 95.3603L428.996 94.8412L428.909 93.8958C428.598 94.1305 428.23 94.2532 427.804 94.2638C427.378 94.2744 426.962 94.1954 426.555 94.0265C426.047 93.8155 425.588 93.5176 425.179 93.133C424.77 92.7485 424.429 92.3123 424.157 91.8246C423.884 91.3368 423.691 90.8158 423.576 90.2613C423.462 89.7069 423.449 89.1616 423.538 88.6255C423.627 88.0894 423.807 87.6243 424.079 87.2303C424.351 86.8363 424.681 86.5326 425.07 86.3192C425.459 86.1059 425.891 85.9906 426.367 85.9732C426.842 85.9558 427.335 86.0526 427.843 86.2636C428.25 86.4324 428.628 86.6749 428.978 86.9908C429.328 87.3068 429.622 87.696 429.86 88.1586L430.225 87.434L431.476 87.9531L431.476 87.9529ZM426.776 92.6965C427.071 92.8189 427.362 92.868 427.648 92.8437C427.935 92.8195 428.194 92.7315 428.426 92.5797C428.657 92.4279 428.855 92.2206 429.018 91.9578C429.181 91.695 429.292 91.3883 429.35 91.0378C429.408 90.6873 429.407 90.3342 429.346 89.9784C429.286 89.6227 429.178 89.2888 429.023 88.9767C428.869 88.6645 428.67 88.3865 428.428 88.1429C428.186 87.899 427.917 87.7161 427.622 87.5936C427.327 87.4712 427.036 87.4222 426.75 87.4464C426.463 87.4707 426.204 87.5587 425.972 87.7105C425.741 87.8622 425.543 88.0695 425.38 88.3323C425.217 88.5951 425.106 88.9018 425.048 89.2523C424.99 89.6028 424.991 89.9559 425.052 90.3117C425.112 90.6674 425.22 91.0014 425.375 91.3136C425.53 91.6257 425.728 91.9036 425.97 92.1474C426.212 92.3911 426.481 92.5742 426.776 92.6967L426.776 92.6965Z" fill="#002824"/>
<path d="M432.993 96.4995L431.498 95.8791L432.727 88.4717L434.206 89.0859L432.993 96.4995ZM433.725 87.1674C433.461 87.0577 433.253 86.8696 433.102 86.6028C432.95 86.3361 432.897 86.0687 432.941 85.8007C432.986 85.5326 433.115 85.3438 433.329 85.2342C433.543 85.1246 433.782 85.1246 434.046 85.2343C434.311 85.344 434.519 85.5298 434.671 85.7913C434.823 86.0528 434.877 86.3175 434.833 86.5857C434.788 86.8538 434.659 87.0451 434.444 87.1599C434.23 87.2747 433.99 87.2771 433.725 87.1674Z" fill="#002824"/>
<path d="M435.769 97.6517L434.289 97.0376L435.518 89.6303L436.692 90.1178L436.89 90.8939C437.173 90.7581 437.5 90.6845 437.872 90.6734C438.243 90.6623 438.633 90.741 439.039 90.9099C439.304 91.0196 439.597 91.1854 439.919 91.407C440.241 91.6288 440.528 91.9133 440.78 92.2604C441.032 92.6075 441.224 93.0232 441.356 93.5076C441.487 93.9919 441.5 94.5537 441.394 95.193L440.65 99.6774L439.247 99.0949L439.993 94.595C440.046 94.2754 440.043 93.9847 439.983 93.723C439.923 93.4612 439.826 93.2306 439.69 93.0312C439.555 92.8317 439.393 92.6626 439.204 92.5235C439.015 92.3844 438.814 92.2707 438.6 92.182C438.438 92.1145 438.247 92.0683 438.028 92.0437C437.809 92.019 437.597 92.0382 437.391 92.1014C437.184 92.1645 437 92.2756 436.838 92.434C436.676 92.5926 436.569 92.8265 436.518 93.1359L435.769 97.6514L435.769 97.6517Z" fill="#002824"/>
<path d="M445.803 100.163C445.908 100.119 446.005 100.06 446.093 99.9861C446.182 99.9125 446.237 99.8087 446.259 99.6748C446.287 99.5099 446.251 99.3463 446.153 99.1844C446.055 99.0225 445.928 98.8681 445.773 98.7211C445.618 98.5742 445.453 98.4421 445.277 98.3248C445.1 98.2076 444.954 98.1083 444.837 98.0266C444.515 97.8048 444.216 97.5735 443.941 97.3326C443.666 97.0917 443.433 96.8408 443.243 96.58C443.052 96.3191 442.913 96.0464 442.824 95.7615C442.735 95.4768 442.718 95.1748 442.771 94.8551C442.82 94.5561 442.938 94.3048 443.122 94.0999C443.307 93.8961 443.534 93.7422 443.804 93.6393C444.074 93.5364 444.377 93.4916 444.717 93.506C445.055 93.5194 445.403 93.6005 445.759 93.7481C446.074 93.8789 446.366 94.0498 446.635 94.2634C446.905 94.4744 447.14 94.7099 447.342 94.9645C447.544 95.2219 447.705 95.4979 447.825 95.7927C447.944 96.0874 448.006 96.3834 448.011 96.6827L446.63 96.4567C446.61 96.184 446.512 95.9228 446.336 95.6735C446.16 95.4241 445.894 95.2256 445.538 95.0779C445.416 95.0273 445.286 94.9927 445.148 94.9738C445.009 94.955 444.878 94.9585 444.754 94.9842C444.631 95.0099 444.522 95.0585 444.429 95.1299C444.336 95.1988 444.278 95.3016 444.256 95.4355C444.232 95.5798 444.254 95.7215 444.324 95.8605C444.393 95.9994 444.483 96.1277 444.594 96.2454C444.705 96.3631 444.829 96.4695 444.964 96.5698C445.1 96.6701 445.226 96.761 445.343 96.8427C445.86 97.2004 446.283 97.5305 446.613 97.8329C446.944 98.1353 447.2 98.4235 447.384 98.6952C447.566 98.9694 447.683 99.2353 447.732 99.4927C447.782 99.7503 447.784 100.016 447.738 100.294C447.683 100.624 447.558 100.903 447.363 101.127C447.168 101.355 446.926 101.521 446.631 101.625C446.337 101.726 446.002 101.764 445.622 101.732C445.241 101.701 444.845 101.6 444.428 101.427C443.8 101.166 443.264 100.776 442.825 100.258C442.384 99.7387 442.123 99.1813 442.038 98.5839L443.384 98.5308C443.486 98.9592 443.654 99.2905 443.887 99.525C444.12 99.7593 444.399 99.9441 444.725 100.079C445.131 100.248 445.491 100.276 445.803 100.163Z" fill="#002824"/>
<path d="M461.225 96.1503L459.352 107.439L458.177 106.952L458.001 106.052C457.656 106.228 457.281 106.323 456.877 106.337C456.472 106.351 456.026 106.257 455.538 106.055C455.03 105.843 454.578 105.549 454.185 105.17C453.791 104.792 453.465 104.362 453.208 103.881C452.951 103.4 452.773 102.885 452.674 102.337C452.574 101.789 452.569 101.247 452.658 100.711C452.747 100.174 452.92 99.7062 453.177 99.3058C453.433 98.9055 453.748 98.5954 454.122 98.3757C454.495 98.156 454.912 98.0343 455.373 98.0106C455.833 97.9869 456.317 98.0804 456.826 98.2914C457.334 98.5025 457.763 98.7711 458.111 99.0974C458.459 99.4236 458.745 99.7985 458.968 100.222L459.745 95.536L461.225 96.1501L461.225 96.1503ZM455.873 104.772C456.178 104.899 456.471 104.965 456.748 104.97C457.027 104.975 457.282 104.913 457.515 104.784C457.749 104.655 457.95 104.455 458.115 104.182C458.28 103.909 458.398 103.556 458.47 103.123C458.547 102.659 458.556 102.244 458.497 101.878C458.438 101.512 458.324 101.186 458.159 100.903C457.994 100.619 457.789 100.38 457.542 100.184C457.297 99.9884 457.02 99.8263 456.714 99.6997C456.42 99.5773 456.126 99.5246 455.841 99.5438C455.552 99.5619 455.294 99.6448 455.063 99.7913C454.832 99.938 454.633 100.142 454.47 100.404C454.306 100.667 454.196 100.974 454.138 101.324C454.079 101.675 454.081 102.028 454.141 102.384C454.202 102.74 454.312 103.075 454.467 103.387C454.622 103.699 454.82 103.977 455.065 104.222C455.307 104.465 455.578 104.649 455.873 104.772L455.873 104.772Z" fill="#002824"/>
<path d="M462.433 108.718L460.938 108.097L462.167 100.69L463.646 101.304L462.433 108.718L462.433 108.718ZM463.166 99.3856C462.901 99.2759 462.693 99.0876 462.542 98.821C462.391 98.5542 462.337 98.2869 462.381 98.0188C462.426 97.7508 462.555 97.5619 462.769 97.4523C462.983 97.3427 463.222 97.3427 463.486 97.4525C463.751 97.5622 463.959 97.7479 464.111 98.0094C464.263 98.2709 464.318 98.5358 464.273 98.8039C464.229 99.0719 464.099 99.2634 463.884 99.378C463.67 99.4927 463.43 99.4953 463.166 99.3856L463.166 99.3856Z" fill="#002824"/>
<path d="M469.169 105.067C469.103 105.007 469.037 104.946 468.971 104.886C468.913 104.84 468.845 104.789 468.767 104.735C468.689 104.681 468.605 104.635 468.513 104.596C468.218 104.474 467.936 104.409 467.665 104.402C467.394 104.394 467.154 104.435 466.944 104.524C466.733 104.613 466.556 104.746 466.413 104.923C466.269 105.1 466.177 105.313 466.136 105.56L465.392 109.946L463.912 109.332L465.141 101.924L466.316 102.412L466.485 103.358C466.738 103.144 467.045 103.015 467.405 102.971C467.765 102.928 468.195 103.01 468.693 103.217C469.019 103.352 469.382 103.552 469.784 103.818L469.169 105.067Z" fill="#002824"/>
<path d="M472.637 113.151C472.108 112.931 471.629 112.625 471.2 112.232C470.771 111.839 470.412 111.395 470.124 110.901C469.837 110.407 469.633 109.882 469.514 109.326C469.394 108.769 469.379 108.223 469.467 107.687C469.556 107.151 469.734 106.684 470.001 106.288C470.268 105.892 470.591 105.585 470.969 105.368C471.347 105.15 471.767 105.03 472.228 105.006C472.688 104.982 473.162 105.071 473.651 105.274C474.149 105.481 474.595 105.76 474.988 106.11C475.381 106.46 475.701 106.886 475.95 107.385C476.199 107.885 476.362 108.457 476.44 109.101C476.518 109.745 476.491 110.464 476.359 111.258L470.928 109.004C470.955 109.302 471.026 109.598 471.14 109.893C471.254 110.188 471.401 110.465 471.581 110.721C471.761 110.978 471.973 111.206 472.217 111.407C472.461 111.607 472.726 111.766 473.01 111.885C473.397 112.045 473.767 112.122 474.122 112.114C474.476 112.107 474.79 112.034 475.063 111.894L475.825 113.201C475.409 113.415 474.926 113.523 474.377 113.526C473.827 113.529 473.247 113.405 472.637 113.151L472.637 113.151ZM473.425 106.635C473.191 106.538 472.962 106.492 472.738 106.499C472.514 106.505 472.3 106.554 472.094 106.645C471.889 106.736 471.704 106.868 471.539 107.042C471.374 107.216 471.239 107.425 471.134 107.668L474.993 109.269C475.014 109.013 474.998 108.753 474.944 108.488C474.89 108.224 474.796 107.972 474.661 107.735C474.527 107.497 474.358 107.284 474.156 107.095C473.953 106.907 473.71 106.753 473.425 106.635L473.425 106.635Z" fill="#002824"/>
<path d="M480.28 116.323C479.771 116.112 479.312 115.814 478.903 115.429C478.494 115.044 478.156 114.609 477.886 114.123C477.616 113.636 477.425 113.116 477.313 112.563C477.201 112.009 477.189 111.464 477.277 110.928C477.366 110.392 477.547 109.927 477.816 109.532C478.085 109.137 478.413 108.832 478.799 108.618C479.185 108.403 479.615 108.287 480.091 108.269C480.567 108.252 481.059 108.349 481.567 108.56C482.157 108.805 482.679 109.164 483.133 109.639C483.587 110.114 483.943 110.653 484.202 111.256L483.028 111.645C482.874 111.262 482.657 110.921 482.375 110.622C482.093 110.323 481.774 110.1 481.418 109.952C481.112 109.826 480.812 109.77 480.516 109.785C480.22 109.799 479.952 109.878 479.711 110.021C479.47 110.163 479.265 110.364 479.097 110.625C478.928 110.886 478.815 111.192 478.757 111.542C478.699 111.893 478.703 112.247 478.768 112.605C478.834 112.962 478.949 113.299 479.114 113.616C479.279 113.932 479.488 114.214 479.74 114.462C479.992 114.71 480.271 114.898 480.576 115.024C480.973 115.189 481.352 115.231 481.713 115.149C482.074 115.068 482.387 114.889 482.65 114.612L483.508 115.927C483.1 116.287 482.613 116.506 482.046 116.585C481.478 116.663 480.889 116.576 480.279 116.323L480.28 116.323Z" fill="#002824"/>
<path d="M488.37 119.448C487.929 119.42 487.502 119.336 487.091 119.199C486.678 119.061 486.322 118.85 486.022 118.565C485.721 118.28 485.5 117.908 485.359 117.447C485.218 116.986 485.204 116.416 485.317 115.735L485.94 111.978L484.873 111.535L485.042 110.511L486.161 110.648L486.489 108.668L487.969 109.283L487.641 111.262L489.624 112.085L489.403 113.415L487.42 112.592L486.758 116.581C486.717 116.829 486.713 117.036 486.745 117.204C486.777 117.371 486.853 117.519 486.973 117.646C487.093 117.773 487.26 117.881 487.474 117.969C487.687 118.058 487.95 118.145 488.262 118.23L488.37 119.448Z" fill="#002824"/>
<path d="M492.723 109.223L490.851 120.511L489.371 119.897L491.243 108.608L492.723 109.223Z" fill="#002824"/>
<path d="M494.741 121.233L492.735 113.376L494.382 114.06L495.842 119.806L498.852 115.915L500.484 116.592L494.052 124.997L492.42 124.319L494.741 121.233Z" fill="#002824"/>
<path d="M508.001 127.596C507.56 127.567 507.134 127.484 506.722 127.346C506.31 127.208 505.954 126.997 505.653 126.712C505.353 126.428 505.132 126.055 504.991 125.595C504.85 125.134 504.836 124.563 504.949 123.883L505.572 120.125L504.504 119.682L504.674 118.659L505.793 118.795L506.121 116.816L507.601 117.43L507.272 119.409L509.256 120.232L509.035 121.562L507.052 120.739L506.39 124.729C506.349 124.976 506.345 125.184 506.376 125.351C506.408 125.519 506.485 125.666 506.605 125.793C506.725 125.92 506.892 126.028 507.105 126.117C507.319 126.205 507.582 126.292 507.894 126.377L508.001 127.596L508.001 127.596Z" fill="#002824"/>
<path d="M512.099 129.528C511.591 129.317 511.132 129.019 510.723 128.635C510.314 128.25 509.973 127.814 509.701 127.326C509.428 126.838 509.235 126.317 509.12 125.763C509.006 125.208 508.993 124.663 509.082 124.127C509.171 123.591 509.351 123.126 509.623 122.732C509.895 122.338 510.225 122.034 510.614 121.821C511.003 121.607 511.435 121.492 511.911 121.475C512.386 121.457 512.878 121.554 513.387 121.765C513.885 121.972 514.341 122.269 514.756 122.655C515.17 123.042 515.513 123.479 515.785 123.967C516.058 124.455 516.251 124.976 516.366 125.53C516.48 126.085 516.493 126.63 516.404 127.166C516.315 127.702 516.135 128.167 515.863 128.561C515.591 128.955 515.261 129.259 514.872 129.472C514.483 129.686 514.049 129.8 513.568 129.815C513.087 129.831 512.597 129.735 512.099 129.528L512.099 129.528ZM513.159 123.092C512.864 122.969 512.57 122.919 512.284 122.944C511.997 122.968 511.733 123.054 511.497 123.198C511.261 123.343 511.059 123.545 510.895 123.811C510.732 124.074 510.621 124.383 510.563 124.734C510.505 125.084 510.506 125.44 510.566 125.795C510.626 126.154 510.739 126.49 510.899 126.804C511.059 127.118 511.262 127.401 511.504 127.645C511.746 127.889 512.017 128.073 512.312 128.195C512.607 128.318 512.9 128.368 513.187 128.343C513.476 128.32 513.736 128.229 513.967 128.078C514.199 127.926 514.399 127.72 514.563 127.454C514.726 127.191 514.837 126.882 514.895 126.532C514.953 126.181 514.952 125.825 514.892 125.47C514.832 125.111 514.721 124.779 514.566 124.472C514.41 124.165 514.211 123.887 513.967 123.642C513.724 123.398 513.453 123.214 513.159 123.092L513.159 123.092Z" fill="#002824"/>
<path d="M413.784 95.535L412.555 102.942L411.304 102.423L411.216 101.478C410.906 101.712 410.537 101.835 410.112 101.846C409.686 101.856 409.27 101.777 408.863 101.608C408.354 101.397 407.896 101.1 407.487 100.715C407.078 100.33 406.737 99.8942 406.464 99.4064C406.192 98.9187 405.999 98.3977 405.884 97.8432C405.769 97.2888 405.757 96.7435 405.846 96.2075C405.934 95.6714 406.115 95.2064 406.387 94.8124C406.659 94.4184 406.989 94.1147 407.378 93.9013C407.766 93.6879 408.198 93.5726 408.674 93.5552C409.15 93.5378 409.642 93.6346 410.151 93.8456C410.557 94.0145 410.936 94.2569 411.285 94.5728C411.635 94.8888 411.929 95.2781 412.168 95.7406L412.533 95.016L413.784 95.5351L413.784 95.535ZM409.083 100.279C409.378 100.401 409.669 100.45 409.956 100.426C410.242 100.401 410.502 100.313 410.733 100.162C410.965 100.01 411.162 99.8025 411.325 99.5397C411.489 99.2769 411.599 98.9702 411.658 98.6197C411.716 98.2692 411.715 97.9161 411.654 97.5603C411.593 97.2046 411.486 96.8707 411.331 96.5586C411.176 96.2463 410.978 95.9684 410.735 95.7247C410.493 95.4809 410.225 95.2979 409.93 95.1755C409.635 95.0531 409.344 95.004 409.057 95.0283C408.771 95.0525 408.511 95.1405 408.28 95.2923C408.048 95.4441 407.851 95.6514 407.687 95.9142C407.524 96.177 407.414 96.4837 407.355 96.8342C407.297 97.1847 407.299 97.5378 407.359 97.8936C407.42 98.2493 407.527 98.5832 407.682 98.8953C407.837 99.2075 408.035 99.4853 408.278 99.7291C408.52 99.973 408.788 100.156 409.083 100.278L409.083 100.279Z" fill="#002824"/>
<path d="M415.193 104.037L413.714 103.423L414.943 96.0159L416.117 96.5034L416.315 97.2795C416.598 97.1437 416.925 97.0702 417.297 97.059C417.668 97.0479 418.057 97.1267 418.464 97.2956C418.729 97.4054 419.022 97.5712 419.344 97.7928C419.666 98.0146 419.953 98.299 420.205 98.6461C420.457 98.9932 420.649 99.409 420.781 99.8933C420.912 100.378 420.925 100.939 420.819 101.579L420.075 106.063L418.672 105.481L419.418 100.981C419.471 100.661 419.468 100.37 419.408 100.109C419.348 99.847 419.25 99.6165 419.115 99.417C418.98 99.2175 418.817 99.0483 418.629 98.9092C418.44 98.7702 418.238 98.6565 418.025 98.5679C417.862 98.5004 417.671 98.4542 417.453 98.4296C417.234 98.4049 417.021 98.4243 416.815 98.4874C416.609 98.5506 416.425 98.6615 416.263 98.8201C416.101 98.9787 415.994 99.2126 415.943 99.5219L415.193 104.037L415.193 104.037Z" fill="#002824"/>
<path d="M424.103 106.842L422.097 98.9849L423.744 99.6687L425.204 105.415L428.214 101.524L429.846 102.201L423.414 110.606L421.781 109.928L424.103 106.842Z" fill="#002824"/>
<path d="M436.824 113.213C436.295 112.993 435.816 112.687 435.386 112.294C434.957 111.901 434.599 111.457 434.311 110.963C434.023 110.469 433.82 109.944 433.7 109.387C433.58 108.831 433.565 108.285 433.654 107.748C433.743 107.212 433.921 106.746 434.187 106.35C434.454 105.954 434.777 105.647 435.155 105.43C435.534 105.212 435.953 105.091 436.414 105.068C436.874 105.044 437.349 105.133 437.837 105.336C438.335 105.543 438.781 105.821 439.174 106.172C439.567 106.522 439.888 106.947 440.136 107.447C440.385 107.947 440.548 108.519 440.626 109.163C440.704 109.807 440.677 110.526 440.545 111.32L435.115 109.066C435.141 109.363 435.212 109.66 435.326 109.955C435.44 110.25 435.587 110.526 435.767 110.783C435.948 111.04 436.16 111.268 436.404 111.469C436.648 111.669 436.912 111.828 437.197 111.946C437.583 112.107 437.954 112.183 438.308 112.176C438.663 112.169 438.976 112.096 439.25 111.955L440.011 113.263C439.595 113.476 439.113 113.585 438.563 113.588C438.014 113.591 437.434 113.466 436.824 113.213L436.824 113.213ZM437.611 106.697C437.377 106.599 437.148 106.554 436.925 106.56C436.701 106.567 436.486 106.615 436.281 106.706C436.076 106.798 435.89 106.93 435.726 107.104C435.561 107.278 435.426 107.487 435.32 107.729L439.18 109.331C439.201 109.075 439.184 108.815 439.13 108.55C439.076 108.285 438.982 108.034 438.847 107.797C438.713 107.559 438.544 107.346 438.342 107.157C438.14 106.968 437.896 106.815 437.611 106.697L437.611 106.697Z" fill="#002824"/>
<path d="M442.636 115.426L441.156 114.812L442.385 107.405L443.559 107.892L443.759 108.653C443.978 108.513 444.228 108.415 444.509 108.361C444.79 108.307 445.113 108.355 445.479 108.507C445.622 108.566 445.779 108.651 445.951 108.761C446.123 108.871 446.295 109.009 446.469 109.174C446.643 109.34 446.804 109.533 446.952 109.755C447.1 109.976 447.215 110.23 447.298 110.518C447.524 110.27 447.832 110.103 448.221 110.017C448.61 109.93 449.003 109.97 449.4 110.134C449.664 110.244 449.937 110.401 450.218 110.606C450.5 110.811 450.749 111.08 450.965 111.412C451.182 111.744 451.338 112.145 451.434 112.615C451.53 113.084 451.525 113.639 451.419 114.278L450.675 118.762L449.287 118.186L450.033 113.686C450.139 113.047 450.084 112.548 449.866 112.187C449.649 111.827 449.327 111.558 448.899 111.381C448.574 111.246 448.266 111.267 447.976 111.444C447.685 111.621 447.491 112.009 447.392 112.607L446.648 117.091L445.259 116.515L446.006 112.015C446.112 111.376 446.056 110.876 445.839 110.516C445.621 110.156 445.299 109.887 444.872 109.71C444.567 109.583 444.28 109.591 444.012 109.733C443.744 109.875 443.547 110.191 443.423 110.679L442.635 115.426L442.636 115.426Z" fill="#002824"/>
<path d="M460.248 114.818L459.019 122.225L457.768 121.706L457.681 120.761C457.37 120.996 457.002 121.118 456.576 121.129C456.15 121.14 455.734 121.06 455.327 120.892C454.819 120.681 454.36 120.383 453.951 119.998C453.542 119.614 453.201 119.177 452.929 118.69C452.656 118.202 452.463 117.681 452.348 117.126C452.234 116.572 452.221 116.027 452.31 115.491C452.399 114.955 452.579 114.489 452.851 114.095C453.123 113.701 453.453 113.398 453.842 113.184C454.231 112.971 454.663 112.856 455.139 112.838C455.614 112.821 456.106 112.918 456.615 113.129C457.022 113.298 457.4 113.54 457.75 113.856C458.1 114.172 458.394 114.561 458.632 115.024L458.997 114.299L460.248 114.818L460.248 114.818ZM455.548 119.562C455.843 119.684 456.134 119.733 456.42 119.709C456.707 119.685 456.966 119.597 457.198 119.445C457.429 119.293 457.627 119.086 457.79 118.823C457.953 118.56 458.064 118.253 458.122 117.903C458.18 117.552 458.179 117.199 458.118 116.844C458.058 116.488 457.95 116.154 457.795 115.842C457.64 115.53 457.442 115.252 457.2 115.008C456.958 114.764 456.689 114.581 456.394 114.459C456.099 114.336 455.808 114.287 455.522 114.312C455.235 114.336 454.976 114.424 454.744 114.576C454.512 114.727 454.315 114.935 454.152 115.197C453.989 115.46 453.878 115.767 453.82 116.117C453.762 116.468 453.763 116.821 453.824 117.177C453.884 117.533 453.992 117.866 454.147 118.179C454.301 118.491 454.5 118.769 454.742 119.013C454.984 119.256 455.253 119.439 455.548 119.562L455.548 119.562Z" fill="#002824"/>
<path d="M461.765 123.365L460.27 122.744L461.498 115.337L462.978 115.951L461.764 123.365L461.765 123.365ZM462.497 114.033C462.233 113.923 462.025 113.735 461.874 113.468C461.722 113.201 461.669 112.934 461.713 112.666C461.758 112.398 461.887 112.209 462.101 112.1C462.314 111.99 462.553 111.99 462.818 112.1C463.082 112.209 463.291 112.395 463.443 112.657C463.595 112.918 463.649 113.183 463.605 113.451C463.56 113.719 463.431 113.911 463.216 114.025C463.001 114.14 462.762 114.142 462.497 114.033L462.497 114.033Z" fill="#002824"/>
<path d="M466.52 113.273L464.647 124.561L463.168 123.947L465.04 112.659L466.52 113.273Z" fill="#002824"/>
<path d="M478.141 122.244L476.912 129.651L475.661 129.132L475.573 128.187C475.263 128.421 474.894 128.544 474.469 128.555C474.043 128.565 473.627 128.486 473.22 128.317C472.711 128.106 472.253 127.808 471.843 127.424C471.434 127.039 471.094 126.603 470.821 126.115C470.549 125.628 470.356 125.107 470.241 124.552C470.126 123.998 470.113 123.452 470.202 122.916C470.291 122.38 470.472 121.915 470.744 121.521C471.016 121.127 471.346 120.823 471.735 120.61C472.123 120.397 472.556 120.281 473.031 120.264C473.507 120.246 473.999 120.343 474.508 120.554C474.914 120.723 475.293 120.966 475.643 121.281C475.992 121.597 476.286 121.987 476.525 122.449L476.89 121.725L478.141 122.244L478.141 122.244ZM473.44 126.987C473.735 127.11 474.026 127.159 474.313 127.135C474.599 127.11 474.859 127.022 475.09 126.87C475.322 126.719 475.519 126.511 475.682 126.248C475.846 125.986 475.956 125.679 476.014 125.328C476.073 124.978 476.071 124.625 476.011 124.269C475.95 123.913 475.843 123.579 475.688 123.267C475.533 122.955 475.335 122.677 475.092 122.433C474.85 122.19 474.582 122.007 474.287 121.884C473.992 121.762 473.701 121.713 473.414 121.737C473.128 121.761 472.868 121.849 472.637 122.001C472.405 122.153 472.208 122.36 472.045 122.623C471.881 122.886 471.771 123.193 471.713 123.543C471.655 123.894 471.656 124.247 471.716 124.602C471.777 124.958 471.884 125.292 472.039 125.604C472.194 125.916 472.392 126.194 472.635 126.438C472.877 126.682 473.145 126.865 473.44 126.987L473.44 126.987Z" fill="#002824"/>
<path d="M486.961 121.756L485.088 133.045L483.913 132.557L483.737 131.657C483.392 131.834 483.018 131.929 482.613 131.943C482.209 131.957 481.762 131.863 481.274 131.66C480.766 131.449 480.315 131.154 479.921 130.776C479.527 130.398 479.201 129.968 478.944 129.487C478.687 129.005 478.509 128.49 478.41 127.942C478.31 127.394 478.305 126.852 478.394 126.316C478.483 125.78 478.656 125.312 478.912 124.911C479.169 124.511 479.484 124.201 479.858 123.981C480.231 123.762 480.648 123.64 481.108 123.616C481.569 123.593 482.053 123.686 482.562 123.897C483.07 124.108 483.499 124.377 483.847 124.703C484.195 125.029 484.481 125.404 484.704 125.827L485.481 121.142L486.961 121.756L486.961 121.756ZM481.609 130.378C481.914 130.504 482.208 130.571 482.484 130.575C482.763 130.581 483.018 130.519 483.251 130.39C483.485 130.261 483.686 130.061 483.851 129.787C484.016 129.514 484.134 129.161 484.206 128.728C484.283 128.264 484.292 127.849 484.233 127.483C484.174 127.117 484.06 126.792 483.895 126.508C483.73 126.225 483.525 125.985 483.278 125.789C483.033 125.594 482.756 125.432 482.45 125.305C482.156 125.183 481.863 125.13 481.577 125.149C481.288 125.168 481.03 125.25 480.799 125.397C480.568 125.544 480.369 125.747 480.206 126.01C480.042 126.273 479.932 126.58 479.874 126.93C479.816 127.28 479.817 127.634 479.877 127.989C479.938 128.345 480.048 128.68 480.203 128.992C480.358 129.304 480.556 129.582 480.801 129.827C481.043 130.071 481.314 130.255 481.609 130.377L481.609 130.378Z" fill="#002824"/>
<path d="M495.473 125.288L493.6 136.577L492.425 136.089L492.248 135.19C491.904 135.366 491.529 135.461 491.125 135.475C490.72 135.489 490.274 135.395 489.786 135.192C489.277 134.981 488.826 134.687 488.432 134.308C488.039 133.93 487.713 133.5 487.456 133.019C487.199 132.538 487.021 132.023 486.921 131.475C486.822 130.927 486.817 130.385 486.906 129.848C486.995 129.312 487.167 128.844 487.424 128.444C487.681 128.043 487.996 127.733 488.369 127.514C488.743 127.294 489.16 127.172 489.62 127.149C490.081 127.125 490.565 127.218 491.074 127.43C491.582 127.641 492.01 127.909 492.358 128.235C492.707 128.562 492.992 128.937 493.216 129.36L493.993 124.674L495.473 125.288L495.473 125.288ZM490.121 133.91C490.426 134.037 490.719 134.103 490.996 134.108C491.275 134.113 491.53 134.051 491.763 133.922C491.997 133.793 492.198 133.593 492.363 133.32C492.528 133.047 492.646 132.694 492.718 132.261C492.795 131.797 492.804 131.382 492.745 131.016C492.686 130.65 492.572 130.324 492.407 130.041C492.242 129.757 492.037 129.518 491.79 129.322C491.545 129.126 491.267 128.964 490.962 128.838C490.667 128.715 490.374 128.663 490.089 128.682C489.8 128.7 489.542 128.783 489.311 128.929C489.08 129.076 488.881 129.28 488.718 129.542C488.554 129.805 488.444 130.112 488.386 130.462C488.327 130.813 488.329 131.166 488.389 131.522C488.45 131.877 488.56 132.212 488.715 132.525C488.869 132.837 489.068 133.115 489.313 133.359C489.555 133.603 489.826 133.787 490.121 133.91L490.121 133.91Z" fill="#002824"/>
<path d="M500.534 133.009C500.468 132.948 500.402 132.888 500.336 132.827C500.278 132.781 500.21 132.731 500.132 132.677C500.054 132.622 499.97 132.576 499.878 132.538C499.583 132.416 499.301 132.351 499.03 132.343C498.76 132.336 498.519 132.376 498.309 132.465C498.098 132.554 497.921 132.687 497.778 132.865C497.634 133.042 497.542 133.254 497.501 133.502L496.757 137.887L495.277 137.273L496.506 129.866L497.681 130.353L497.85 131.3C498.103 131.085 498.41 130.956 498.77 130.913C499.131 130.87 499.56 130.951 500.058 131.158C500.384 131.293 500.747 131.494 501.149 131.76L500.534 133.009Z" fill="#002824"/>
<path d="M504.003 141.092C503.474 140.873 502.995 140.567 502.565 140.174C502.136 139.781 501.777 139.337 501.49 138.843C501.202 138.349 500.998 137.824 500.879 137.267C500.759 136.711 500.744 136.164 500.833 135.628C500.921 135.092 501.099 134.626 501.366 134.23C501.633 133.834 501.956 133.527 502.334 133.309C502.713 133.092 503.132 132.971 503.593 132.948C504.053 132.924 504.528 133.013 505.016 133.216C505.514 133.423 505.96 133.701 506.353 134.052C506.745 134.402 507.066 134.827 507.315 135.327C507.564 135.827 507.727 136.399 507.805 137.043C507.883 137.687 507.856 138.406 507.724 139.199L502.294 136.946C502.32 137.243 502.391 137.54 502.505 137.835C502.619 138.13 502.766 138.406 502.946 138.663C503.126 138.919 503.339 139.148 503.582 139.348C503.826 139.549 504.091 139.708 504.376 139.826C504.762 139.987 505.132 140.063 505.487 140.056C505.841 140.049 506.155 139.975 506.429 139.835L507.19 141.143C506.774 141.356 506.291 141.464 505.742 141.468C505.192 141.471 504.613 141.346 504.002 141.093L504.003 141.092ZM504.79 134.576C504.556 134.479 504.327 134.434 504.103 134.44C503.88 134.447 503.665 134.495 503.46 134.586C503.254 134.677 503.069 134.81 502.904 134.984C502.74 135.158 502.604 135.366 502.499 135.609L506.359 137.211C506.379 136.955 506.363 136.695 506.309 136.43C506.255 136.165 506.161 135.914 506.026 135.676C505.892 135.439 505.723 135.226 505.521 135.037C505.318 134.848 505.075 134.695 504.79 134.577L504.79 134.576Z" fill="#002824"/>
<path d="M511.993 142.557C512.098 142.513 512.195 142.454 512.284 142.38C512.372 142.307 512.427 142.203 512.449 142.069C512.477 141.904 512.441 141.741 512.343 141.579C512.245 141.417 512.118 141.262 511.963 141.115C511.808 140.969 511.643 140.836 511.467 140.719C511.29 140.602 511.144 140.502 511.027 140.421C510.705 140.199 510.406 139.968 510.131 139.727C509.856 139.486 509.623 139.235 509.433 138.974C509.242 138.713 509.103 138.441 509.014 138.156C508.925 137.871 508.908 137.569 508.961 137.249C509.01 136.95 509.128 136.699 509.311 136.494C509.497 136.29 509.724 136.136 509.994 136.034C510.264 135.931 510.567 135.886 510.907 135.9C511.245 135.914 511.593 135.995 511.949 136.142C512.264 136.273 512.556 136.444 512.825 136.658C513.095 136.869 513.33 137.104 513.532 137.359C513.734 137.616 513.895 137.892 514.014 138.187C514.134 138.482 514.196 138.778 514.201 139.077L512.82 138.851C512.8 138.578 512.702 138.317 512.526 138.068C512.35 137.819 512.084 137.62 511.728 137.472C511.606 137.422 511.476 137.387 511.337 137.368C511.199 137.349 511.068 137.353 510.944 137.378C510.821 137.404 510.712 137.453 510.619 137.524C510.526 137.593 510.468 137.696 510.446 137.83C510.422 137.974 510.444 138.116 510.514 138.255C510.583 138.394 510.673 138.522 510.784 138.64C510.895 138.757 511.019 138.864 511.154 138.964C511.29 139.064 511.416 139.155 511.533 139.237C512.05 139.595 512.473 139.925 512.803 140.227C513.134 140.529 513.39 140.818 513.573 141.089C513.756 141.364 513.873 141.629 513.922 141.887C513.972 142.145 513.974 142.41 513.928 142.688C513.873 143.018 513.748 143.297 513.553 143.522C513.358 143.749 513.115 143.916 512.821 144.02C512.527 144.121 512.192 144.158 511.811 144.127C511.431 144.096 511.034 143.994 510.618 143.821C509.99 143.561 509.454 143.17 509.015 142.652C508.574 142.133 508.313 141.576 508.228 140.978L509.573 140.925C509.676 141.353 509.844 141.685 510.077 141.919C510.31 142.154 510.589 142.338 510.914 142.473C511.321 142.642 511.681 142.67 511.993 142.557L511.993 142.557Z" fill="#002824"/>
<path d="M518.232 145.147C518.337 145.102 518.434 145.043 518.522 144.97C518.61 144.896 518.666 144.792 518.688 144.658C518.715 144.493 518.68 144.33 518.582 144.168C518.484 144.006 518.357 143.852 518.202 143.705C518.047 143.558 517.882 143.426 517.705 143.308C517.529 143.191 517.383 143.092 517.266 143.01C516.944 142.788 516.645 142.557 516.37 142.316C516.095 142.075 515.862 141.824 515.671 141.563C515.481 141.303 515.341 141.03 515.253 140.745C515.164 140.46 515.146 140.158 515.199 139.839C515.249 139.54 515.367 139.288 515.55 139.083C515.736 138.88 515.963 138.726 516.233 138.623C516.502 138.52 516.806 138.475 517.146 138.49C517.484 138.503 517.831 138.584 518.187 138.732C518.503 138.863 518.795 139.033 519.064 139.247C519.333 139.458 519.569 139.693 519.771 139.948C519.973 140.205 520.134 140.481 520.253 140.776C520.373 141.071 520.435 141.367 520.44 141.666L519.059 141.44C519.039 141.168 518.941 140.907 518.764 140.657C518.588 140.408 518.322 140.209 517.966 140.062C517.844 140.011 517.714 139.976 517.576 139.957C517.438 139.939 517.307 139.942 517.183 139.968C517.059 139.994 516.951 140.042 516.857 140.114C516.764 140.182 516.706 140.285 516.684 140.419C516.66 140.564 516.683 140.705 516.752 140.844C516.822 140.983 516.912 141.111 517.023 141.229C517.134 141.347 517.257 141.453 517.393 141.553C517.528 141.654 517.655 141.745 517.771 141.826C518.288 142.184 518.712 142.514 519.042 142.816C519.372 143.119 519.629 143.407 519.812 143.679C519.995 143.953 520.111 144.219 520.161 144.476C520.21 144.734 520.213 144.999 520.167 145.278C520.112 145.608 519.987 145.886 519.792 146.111C519.597 146.339 519.354 146.505 519.06 146.609C518.766 146.71 518.431 146.747 518.05 146.716C517.669 146.685 517.273 146.584 516.856 146.411C516.228 146.15 515.692 145.76 515.254 145.241C514.813 144.722 514.552 144.165 514.466 143.568L515.812 143.514C515.915 143.943 516.083 144.274 516.316 144.509C516.549 144.743 516.828 144.928 517.153 145.063C517.56 145.232 517.92 145.26 518.232 145.147L518.232 145.147Z" fill="#002824"/>
</g>
<defs>
<linearGradient id="paint0_linear_144_141" x1="167.587" y1="126.938" x2="216.515" y2="118.996" gradientUnits="userSpaceOnUse">
<stop stop-color="#006633"/>
<stop offset="1" stop-color="#002824"/>
</linearGradient>
<linearGradient id="paint1_linear_144_141" x1="167.589" y1="126.939" x2="216.516" y2="118.997" gradientUnits="userSpaceOnUse">
<stop stop-color="#006633"/>
<stop offset="1" stop-color="#002824"/>
</linearGradient>
<linearGradient id="paint2_linear_144_141" x1="167.589" y1="126.939" x2="216.516" y2="118.997" gradientUnits="userSpaceOnUse">
<stop stop-color="#006633"/>
<stop offset="1" stop-color="#002824"/>
</linearGradient>
<linearGradient id="paint3_linear_144_141" x1="167.587" y1="126.939" x2="216.515" y2="118.997" gradientUnits="userSpaceOnUse">
<stop stop-color="#006633"/>
<stop offset="1" stop-color="#002824"/>
</linearGradient>
<linearGradient id="paint4_linear_144_141" x1="167.589" y1="126.938" x2="216.516" y2="118.996" gradientUnits="userSpaceOnUse">
<stop stop-color="#006633"/>
<stop offset="1" stop-color="#002824"/>
</linearGradient>
<clipPath id="clip0_144_141">
<rect width="627" height="284" fill="white"/>
</clipPath>
<clipPath id="clip1_144_141">
<rect width="135.671" height="94.0081" fill="white" transform="translate(408.487 46.6117) rotate(3.11752)"/>
</clipPath>
</defs>
</svg>
