<svg width="626" height="241" viewBox="0 0 626 241" fill="none" xmlns="http://www.w3.org/2000/svg">
<path d="M267.13 127.663C268.928 128.248 271.615 127.301 273.949 127.056L305.166 140.955C307.212 141.859 317.448 146.216 318.75 147.236C318.696 151.872 318.682 156.509 318.71 161.146L318.723 172.736L318.714 178.866L318.768 183.31C318.691 193.535 318.664 203.761 318.691 213.986L318.687 223.53L318.728 239.445L318.723 245.752H154.082H10.3856H0.0601885L0.0580932 231.172C-0.0189101 228.045 -0.144281 225.524 0.62907 222.451C1.45306 219.136 3.2938 216.16 5.89306 213.941C10.3456 210.08 24.6143 202.014 30.5596 198.457L81.1836 168.303C81.1841 174.599 80.9007 184.486 81.3022 190.504C84.3268 191.921 86.7211 193.089 89.6557 194.74C92.3461 200.487 95.8624 196.508 100.077 194.018C101.13 195.602 100.819 203.117 100.801 205.521C103.899 207.373 108.396 210.214 111.522 211.741C115.281 210.096 120.358 207.109 124.042 205.086L145.71 193.169C145.725 196.432 145.883 201.697 145.642 204.807C147.836 206.135 156.978 211.481 158.458 212.746C160.673 211.892 161.422 210.836 162.49 208.756C165.459 202.978 168.138 197.095 171.144 191.329C173.423 186.258 175.981 181.16 178.425 176.153C186.427 171.864 264.863 130.443 266.824 127.788L267.13 127.663L267.13 127.663Z" fill="#006633"/>
<path d="M318.752 147.235C318.698 151.872 318.684 156.509 318.711 161.145L318.725 172.736L318.716 178.866L318.77 183.309C318.693 193.535 318.666 203.76 318.693 213.985L318.689 223.53L318.729 239.444L318.725 245.752H154.083C165.339 238.65 177.554 231.705 189.059 224.888L252.957 186.92L295.815 161C302.76 156.777 311.802 150.877 318.752 147.235Z" fill="#002824"/>
<path d="M259.706 142.669C266.656 146.355 273.548 150.159 280.367 154.079C256.24 167.67 230.816 183.406 206.791 197.602L176.241 215.63C171.351 218.519 163.475 222.951 158.878 226.133C150.749 221.59 141.467 216.978 133.653 212.386C136.647 209.929 142.133 206.78 145.642 204.807C147.835 206.135 156.977 211.481 158.457 212.746C160.672 211.893 161.421 210.836 162.49 208.756C165.458 202.978 168.137 197.095 171.143 191.329C173.816 189.504 176.455 188.725 179.229 187.209C206.057 172.549 232.646 156.87 259.706 142.669L259.706 142.669Z" fill="#67ED0A"/>
<path d="M266.825 127.789C264.865 130.443 186.428 171.864 178.427 176.153C175.982 181.16 173.425 186.258 171.145 191.329C168.14 197.095 165.46 202.978 162.492 208.756C161.423 210.836 160.674 211.893 158.46 212.746C156.979 211.481 147.837 206.135 145.644 204.807C145.884 201.697 145.727 196.432 145.711 193.169L124.044 205.085C120.359 207.109 115.282 210.097 111.523 211.741L110.621 209.264C111.018 207.242 110.788 183.262 110.79 179.322L110.84 99.27C114.169 96.9802 121.431 93.2373 125.231 91.1542L152.854 76.0716L254.219 20.9922L266.825 127.789Z" fill="white"/>
<path d="M145.711 193.168C149.252 191.223 154.21 188.686 157.526 186.587C157.557 191.438 157.388 209.212 158.459 212.746C156.979 211.48 147.837 206.135 145.643 204.807C145.884 201.697 145.726 196.432 145.711 193.168V193.168Z" fill="#002824"/>
<path d="M81.1704 83.7177C126.019 57.7016 172.943 34.0064 218.245 8.701C223.351 5.84856 228.674 2.99436 233.889 0.368408C237.391 2.25887 240.916 4.10013 244.467 5.89183L90.1237 90.0306C90.2351 98.4658 90.5178 193.149 89.6545 194.74C86.7198 193.088 84.3257 191.92 81.301 190.503C80.8995 184.485 81.1829 174.598 81.1824 168.302L81.1704 83.7176V83.7177Z" fill="#67ED0A"/>
<path d="M100.345 95.1287C105.212 91.8398 113.28 87.6705 118.621 84.732L151.36 66.8317L254.247 11.0718L254.216 20.9916C221.336 39.5908 186.159 57.9198 152.851 76.0714L125.228 91.1539C121.428 93.237 114.166 96.9799 110.837 99.2698L110.788 179.321C110.785 183.261 111.015 207.24 110.618 209.263L111.52 211.74C108.394 210.213 103.898 207.373 100.8 205.52C100.817 203.117 101.129 195.601 100.075 194.017L100.548 192.985C99.6333 189.211 100.304 172.045 100.273 166.603C100.14 142.854 100.74 118.863 100.345 95.1287Z" fill="#4CAD07"/>
<path d="M100.93 95.4779C104.609 96.6868 106.857 97.7242 110.347 99.3506C110.325 109.718 109.954 207.687 110.618 209.263L111.52 211.74C108.394 210.214 103.898 207.373 100.8 205.52C100.818 203.117 101.129 195.601 100.075 194.017L100.548 192.985C101.238 191.817 101.472 104.704 100.93 95.4781L100.93 95.4779Z" fill="#4CAD07"/>
<path d="M380.264 97.5327C381.393 96.5706 382.362 96.2406 383.709 95.6726C383.751 96.9934 383.713 100.049 384.183 101.106C392.952 104.006 405.34 109.84 414.151 113.5C440.149 124.427 466.066 135.556 491.889 146.886L504.705 171.861C506.619 175.579 509.482 183.208 513.285 184.634C515.439 183.799 525.194 178.207 527.694 176.834L527.729 165.013C537.147 169.557 546.603 174.016 556.098 178.392C556.786 178.5 564.705 174.172 565.952 173.518C565.935 171.354 565.704 165.091 566.281 163.4C568.059 164.237 574.362 167.308 575.969 167.818L583.062 163.914C582.96 162.182 582.712 160.409 583.259 158.784L584.178 158.448L584.571 158.647L588.241 160.084C593.083 161.995 625.076 174.029 626.999 175.628C626.26 210.981 626.901 248.437 626.914 283.999H505.559H305.632L305.705 249.584L305.688 244.265L305.91 244.012C306.884 243.556 308.35 242.764 309.286 242.159C321.871 233.996 339.023 228.422 347.13 215.179C352.702 206.081 350.834 196.275 351.403 186.331C351.223 185.022 351.317 180.82 351.317 179.292L351.069 179.371L351.151 177.806L329.182 148.049C335.959 144.053 345.848 140.112 349.993 134.055C350.313 132.446 350.245 126.86 350.262 124.938C350.185 119.721 350.403 114.878 355.116 111.732C362.334 106.917 372.423 101.138 380.264 97.5331L380.264 97.5327Z" fill="#006633"/>
<path d="M351.318 179.292C354.672 179.9 362.718 183.416 366.201 184.853L390.678 194.957C429.235 210.712 467.66 226.79 505.948 243.19C505.089 256.483 506.042 270.64 505.559 283.999H305.633L305.705 249.584L305.688 244.265L305.911 244.012L351.318 179.292H351.318Z" fill="#002824"/>
<path d="M505.948 243.191L584.143 199.499C596.681 192.443 614.68 181.525 626.999 175.628C626.26 210.981 626.901 248.437 626.914 283.999H505.559C506.042 270.641 505.089 256.483 505.948 243.191Z" fill="#162413"/>
<path d="M350.263 124.938L350.52 122.423L351.054 122.007C352.344 122.393 356.216 125.69 358.323 126.971C356.934 129.322 353.391 136.383 349.994 134.055C350.314 132.446 350.246 126.86 350.264 124.937L350.263 124.938Z" fill="#002824"/>
<path d="M396.721 10.9585L540.024 66.877C543.821 68.3977 568.234 77.8235 570.221 79.5473C570.323 101.171 570.217 122.796 569.908 144.418C569.89 147.553 569.581 166.162 570.203 168.056C569.607 169.803 569.846 176.274 569.863 178.51C568.574 179.185 560.394 183.656 559.683 183.545C549.873 179.025 540.104 174.417 530.373 169.722L530.338 181.936C527.755 183.353 517.677 189.131 515.451 189.994C511.522 188.52 508.564 180.639 506.587 176.797L493.347 150.995C466.668 139.29 439.893 127.793 413.033 116.503C403.93 112.722 391.132 106.694 382.072 103.699C381.587 102.607 381.627 99.45 381.582 98.0853C381.688 96.2399 381.525 87.1458 381.812 86.0629C384.545 75.8367 377.936 22.353 381.233 15.7508C382.576 14.9213 383.013 15.1935 384.734 15.1808C386.717 15.4943 389.171 16.7866 391.056 17.6694L391.922 17.9933C393.242 16.5591 394.394 16.5303 396.279 15.5933C397.127 14.4266 396.796 12.4841 396.721 10.9584L396.721 10.9585Z" fill="white"/>
<path d="M396.721 10.9585L540.024 66.877C543.821 68.3977 568.235 77.8235 570.221 79.5473C566.95 80.859 563.242 82.9244 560.072 83.9351C558.443 82.9332 549.035 79.3459 546.792 78.46L516.604 66.5571L391.922 17.9933C393.242 16.5591 394.394 16.5303 396.279 15.5933C397.127 14.4266 396.796 12.4841 396.721 10.9584L396.721 10.9585Z" fill="#4CAD07"/>
<path d="M560.072 83.9356C563.242 82.9248 566.95 80.8591 570.221 79.5476C570.323 101.172 570.217 122.796 569.908 144.418C569.89 147.553 569.581 166.162 570.204 168.057C569.608 169.804 569.846 176.274 569.863 178.51C568.574 179.185 560.394 183.657 559.683 183.545C560.509 181.059 560.076 159.7 560.076 155.969L560.072 83.9354L560.072 83.9356Z" fill="#4CAD07"/>
<path d="M515.678 162.792C520.539 165.147 525.426 167.569 530.375 169.722L530.339 181.936C527.757 183.353 517.678 189.131 515.453 189.994C515.475 181.04 515.378 171.707 515.678 162.792V162.792Z" fill="#002824"/>
<path d="M397.181 5.13794L529.522 56.6103L564.116 70.3043C567.286 71.5612 578.023 75.6088 580.491 76.9892C583.078 75.9387 585.554 74.6292 587.881 73.0809L587.828 131.581C587.815 141.094 587.696 150.832 587.718 160.365C587.718 161.962 587.824 161.975 588.693 162.941L587.744 163.288C587.179 164.967 587.435 166.799 587.541 168.588L580.212 172.621C578.553 172.094 572.041 168.922 570.204 168.057C569.582 166.162 569.891 147.553 569.908 144.419C570.217 122.796 570.323 101.172 570.222 79.5478C568.235 77.8241 543.822 68.3983 540.025 66.8775L396.722 10.959L395.909 10.5535C397.397 9.66884 396.267 7.43794 397.181 5.13811V5.13794Z" fill="#CEE8BA"/>
<path d="M587.88 73.0803L587.828 131.581C587.815 141.094 587.695 150.832 587.717 160.364C587.717 161.961 587.823 161.975 588.693 162.941L587.743 163.287C587.178 164.967 587.434 166.798 587.54 168.587L580.212 172.621C580.609 163.287 580.19 151.603 580.216 142.033L580.49 76.9888C583.077 75.9385 585.554 74.6289 587.88 73.0805L587.88 73.0803Z" fill="#4CAD07"/>
<path d="M404.675 -0.000366211C423.181 7.12665 585.049 69.0241 587.548 72.0119L587.879 73.0809C585.552 74.6293 583.075 75.9387 580.489 76.9892C578.021 75.6088 567.284 71.5612 564.114 70.3043L529.52 56.6103L397.178 5.13795C397.916 3.6558 402.829 1.1492 404.675 -0.000366211Z" fill="#F0F6FD"/>
<path d="M399.8 132.874L450.749 153.668C458.127 156.675 470.72 161.438 477.514 164.821C477.894 169.035 477.612 174.42 477.671 178.761C477.802 188.441 477.484 198.38 477.685 208.039L472.262 210.911C470.341 210.37 465.362 208.171 463.368 207.347L444.855 199.652C427.664 192.515 410.407 185.534 393.084 178.712C392.875 168.835 393.12 158.851 393 148.961C392.948 144.695 392.927 139.919 393.211 135.685C395.395 134.719 397.591 133.782 399.8 132.874H399.8Z" fill="#67ED0A"/>
<path d="M399.8 132.874L450.749 153.668C458.127 156.675 470.72 161.438 477.513 164.821C476.469 165.339 473.313 166.832 472.524 167.418C468.189 166.289 452.641 159.498 447.418 157.392L393.211 135.685C395.395 134.719 397.59 133.782 399.8 132.874H399.8Z" fill="#4CAD07"/>
<path d="M477.514 164.821C477.894 169.036 477.612 174.42 477.671 178.761C477.802 188.441 477.484 198.381 477.685 208.039L472.262 210.911C471.94 208.067 472.324 199.035 472.375 195.729C472.514 186.403 472.229 176.683 472.525 167.419C473.314 166.832 476.469 165.339 477.514 164.821L477.514 164.821Z" fill="#006633"/>
</svg>
