<svg width="79" height="23" viewBox="0 0 79 23" fill="none" xmlns="http://www.w3.org/2000/svg">
<path fill-rule="evenodd" clip-rule="evenodd" d="M10.563 15.3005L5.69219 15.3014C5.31425 15.3009 5.02369 15.275 4.67712 15.4095C4.37218 15.5278 4.33534 15.6023 4.17817 15.7569L3.61707 16.3255C3.47702 16.4526 3.34643 16.6523 3.21223 16.7684L1.58358 18.4988C1.47015 18.5984 1.37807 18.6543 1.36535 18.8433C1.33218 19.3365 1.92352 19.2422 2.4028 19.242L7.47453 19.2456C7.50414 20.2048 7.48563 21.3318 7.4813 22.3288C7.47813 23.0576 7.82473 22.9995 8.47543 22.9988L10.215 22.9989C10.9132 22.9968 10.7989 22.4246 10.7989 21.7367L10.7986 19.2492C12.997 19.2657 13.71 19.2996 14.8355 17.9994L15.4846 17.3299C15.8837 16.8996 16.3837 16.4416 16.7869 15.9955C17.4788 15.23 18.1825 14.7703 18.2713 13.5299C18.3306 12.7025 18.1154 12.0411 17.7147 11.4796C17.5315 11.2228 17.2297 10.9722 17.0747 10.8009C15.7313 9.31664 15.387 9.38007 13.5992 9.38125L8.98143 9.38062C8.74981 9.37854 8.53923 9.4843 8.52341 9.70629C8.50641 9.94468 8.71181 10.0629 8.82743 10.17L10.1733 11.4618C10.2495 11.5438 10.271 11.5877 10.3497 11.6616L11.9068 13.1507C12.1213 13.3449 12.4339 13.6504 12.4417 14.1315C12.449 14.5769 12.1777 14.9539 11.9052 15.1121C11.4739 15.3626 11.1063 15.3015 10.5628 15.3005L10.563 15.3005Z" fill="#67ED0A"/>
<path fill-rule="evenodd" clip-rule="evenodd" d="M7.46824 3.71731C5.92207 3.74121 5.00358 3.62092 3.93091 4.69835L0.748504 7.85798C0.423118 8.16944 0.17754 8.49501 0.0663286 8.99341C-0.0561271 9.54236 -0.011397 10.0426 0.220296 10.5161C0.342152 10.7652 0.429324 10.8594 0.577934 11.0363C0.870643 11.3846 1.63294 12.1116 1.90785 12.4377C2.58887 13.2455 3.21292 13.6002 4.36359 13.5946L8.91807 13.5938C9.21071 13.5948 9.52235 13.6445 9.68055 13.4497C9.90096 13.1783 9.59284 12.9574 9.48442 12.8569C9.31783 12.7025 9.19266 12.5611 9.02498 12.4059C8.72082 12.1244 8.41091 11.8183 8.12063 11.5206L6.28964 9.74048C5.41793 8.98431 5.88033 7.73804 6.95578 7.67642C7.52753 7.64367 8.2084 7.67375 8.79156 7.67548C10.0139 7.67913 11.2385 7.66538 12.4604 7.67451C13.1229 7.67948 13.4816 7.71352 13.9545 7.37652C14.1297 7.25172 14.2256 7.0759 14.4071 6.91848L15.052 6.21333C15.1303 6.12278 15.2011 6.08624 15.2782 6.00059C15.3539 5.91649 15.3992 5.84522 15.4772 5.75936C15.5565 5.67217 15.638 5.61906 15.716 5.52806C15.7874 5.44476 15.8377 5.36196 15.9183 5.29016C16.1553 5.07915 16.3797 4.79922 16.5863 4.57706C16.7159 4.43764 16.937 4.32888 16.9037 4.04215C16.8701 3.75361 16.6271 3.72412 16.3194 3.72048L10.8021 3.72169C10.7522 2.88705 10.7979 1.89365 10.799 1.04189C10.7996 0.611806 10.8478 0.186101 10.4705 0.0462598C10.2967 -0.0181727 7.98369 -0.0122706 7.80881 0.045215C7.4215 0.172517 7.48082 0.628722 7.48036 1.04185C7.47983 1.50778 7.5043 3.42242 7.4682 3.71721L7.46824 3.71731Z" fill="#67ED0A"/>
<path d="M26.8031 15.0242C26.9366 14.9073 27.0553 14.7758 27.1591 14.6296C27.2629 14.4835 27.3148 14.3154 27.3148 14.1254C27.3148 13.8916 27.2295 13.6943 27.059 13.5335C26.8884 13.3728 26.6808 13.2376 26.436 13.128C26.1913 13.0183 25.9355 12.9343 25.6685 12.8759C25.4015 12.8174 25.1791 12.7662 25.0011 12.7224C24.5117 12.6055 24.0519 12.463 23.6218 12.2949C23.1917 12.1268 22.8172 11.9223 22.4983 11.6811C22.1795 11.4399 21.9273 11.155 21.7419 10.8261C21.5565 10.4973 21.4638 10.1064 21.4638 9.6533C21.4638 9.22947 21.5676 8.83121 21.7716 8.45854C21.9792 8.08587 22.2536 7.75704 22.5984 7.47204C22.9433 7.18704 23.3474 6.96051 23.8146 6.79246C24.2781 6.62438 24.7712 6.54036 25.2903 6.54036C25.7501 6.54036 26.1876 6.60611 26.6029 6.7413C27.0181 6.87284 27.3926 7.05551 27.7263 7.28205C28.06 7.51223 28.3418 7.7899 28.5717 8.11508C28.8016 8.44027 28.9536 8.79831 29.0278 9.19293L27.0923 9.6533C27.0033 9.30255 26.8105 9.01026 26.5138 8.77643C26.2172 8.54259 25.8093 8.42568 25.2902 8.42568C25.1123 8.42568 24.9268 8.45124 24.7341 8.50241C24.5413 8.55357 24.3633 8.6303 24.2001 8.73259C24.037 8.83489 23.8998 8.95913 23.7886 9.10526C23.6773 9.24774 23.6217 9.41582 23.6217 9.60582C23.6217 9.81044 23.6848 9.98581 23.8109 10.1319C23.9369 10.2781 24.0889 10.3987 24.2669 10.4937C24.4449 10.5887 24.6377 10.6617 24.8453 10.7202C25.053 10.7787 25.2458 10.8298 25.4238 10.8737C26.2098 11.0637 26.8624 11.2682 27.3815 11.4875C27.9006 11.7067 28.3159 11.9479 28.6274 12.2073C28.9388 12.4703 29.1576 12.759 29.2837 13.0732C29.4097 13.3874 29.4728 13.7382 29.4728 14.1328C29.4728 14.6004 29.3653 15.0389 29.1502 15.4444C28.9352 15.8537 28.6423 16.2081 28.2641 16.5077C27.8859 16.8036 27.4372 17.0375 26.9107 17.2055C26.3842 17.3736 25.8206 17.4576 25.2125 17.4576C24.2967 17.4576 23.4772 17.2348 22.7616 16.789C22.0423 16.3432 21.5603 15.7477 21.3082 15.0023L23.1324 14.1912C23.3697 14.7027 23.6738 15.0498 24.0446 15.2325C24.4153 15.4152 24.838 15.5065 25.3126 15.5065C25.9059 15.5065 26.4028 15.3458 26.8032 15.0242H26.8031Z" fill="#004421"/>
<path d="M35.04 17.4795C34.2688 17.4795 33.5458 17.337 32.8709 17.052C32.1961 16.767 31.6065 16.3761 31.1022 15.8792C30.598 15.3823 30.2012 14.7977 29.912 14.1254C29.6228 13.4531 29.4782 12.737 29.4782 11.977C29.4782 11.2171 29.6154 10.5009 29.8898 9.82863C30.1642 9.15635 30.5349 8.57177 31.0021 8.07486C31.4693 7.57795 32.0144 7.18701 32.6373 6.90201C33.2602 6.61702 33.9276 6.47453 34.6395 6.47453C35.3663 6.47453 36.0374 6.59874 36.6529 6.8472C37.2684 7.09566 37.8023 7.48295 38.2547 8.00907C38.707 8.53519 39.0593 9.20383 39.3114 10.015C39.5636 10.8261 39.6896 11.7943 39.6896 12.9197H31.7697C31.8735 13.2997 32.0366 13.6541 32.2591 13.9829C32.4815 14.3117 32.7448 14.5967 33.0489 14.8378C33.3529 15.079 33.694 15.2653 34.0722 15.3969C34.4504 15.5284 34.8472 15.5941 35.2624 15.5941C35.826 15.5941 36.3488 15.4919 36.8308 15.2872C37.3129 15.0826 37.7244 14.8122 38.0655 14.4761L39.4004 15.7914C38.8813 16.303 38.2472 16.7122 37.4982 17.0191C36.7493 17.326 35.9298 17.4795 35.0399 17.4795L35.04 17.4795ZM34.6395 8.40369C34.2984 8.40369 33.9758 8.46944 33.6718 8.60098C33.3678 8.73252 33.086 8.91519 32.8264 9.14902C32.5669 9.38285 32.3444 9.66056 32.159 9.98206C31.9736 10.3036 31.8364 10.6543 31.7474 11.0343H37.376C37.3463 10.6836 37.2647 10.3474 37.1313 10.0259C36.9978 9.70439 36.8124 9.42308 36.5751 9.18191C36.3378 8.94075 36.0597 8.75079 35.7408 8.61192C35.422 8.47309 35.0549 8.40365 34.6396 8.40365L34.6395 8.40369Z" fill="#004421"/>
<path d="M42.476 17.2165H40.3181V6.71569H42.0311L42.476 7.63643C42.832 7.30027 43.2621 7.0226 43.7664 6.80339C44.2707 6.58419 44.8194 6.47456 45.4127 6.47456C45.7983 6.47456 46.2358 6.53302 46.7252 6.64994C47.2147 6.76686 47.6707 6.98606 48.0934 7.3076C48.5161 7.62914 48.8721 8.07489 49.1613 8.64485C49.4505 9.21484 49.5951 9.95288 49.5951 10.859V17.2165H47.5484V10.8371C47.5484 10.384 47.4779 10.0004 47.337 9.68615C47.1961 9.37194 47.0107 9.11984 46.7808 8.92984C46.551 8.73984 46.2914 8.60466 46.0022 8.52428C45.713 8.44391 45.4127 8.40372 45.1012 8.40372C44.8639 8.40372 44.5932 8.44755 44.2892 8.53526C43.9851 8.62296 43.6996 8.76545 43.4326 8.96274C43.1657 9.16003 42.9395 9.40849 42.7541 9.70811C42.5687 10.0077 42.476 10.3767 42.476 10.8152V17.2165Z" fill="#004421"/>
<path d="M61.0133 1.2132V17.2165H59.3003L58.8553 16.1203C58.4252 16.5442 57.9358 16.8767 57.387 17.1178C56.8383 17.3589 56.208 17.4795 55.496 17.4795C54.7545 17.4795 54.0722 17.3371 53.4493 17.0521C52.8264 16.7671 52.285 16.3761 51.8252 15.8792C51.3655 15.3823 51.0058 14.7977 50.7463 14.1254C50.4867 13.4531 50.3569 12.737 50.3569 11.9771C50.3569 11.2171 50.4867 10.501 50.7463 9.82867C51.0058 9.15639 51.3655 8.5718 51.8252 8.07489C52.285 7.57798 52.8264 7.18704 53.4493 6.90205C54.0722 6.61705 54.7545 6.47457 55.496 6.47457C56.2376 6.47457 56.8828 6.59513 57.4315 6.83629C57.9803 7.07746 58.4549 7.41723 58.8553 7.85568V1.21323H61.0133L61.0133 1.2132ZM55.6629 15.5942C56.1078 15.5942 56.5231 15.5211 56.9013 15.375C57.2832 15.2288 57.6169 15.006 57.9061 14.7063C58.1953 14.4067 58.4252 14.0304 58.5884 13.5773C58.7515 13.1242 58.8331 12.5908 58.8331 11.977C58.8331 11.3193 58.7515 10.764 58.5884 10.3109C58.4252 9.85785 58.1953 9.48883 57.9061 9.20383C57.6169 8.91883 57.2832 8.71425 56.9013 8.59C56.5231 8.46576 56.1078 8.40365 55.6629 8.40365C55.2328 8.40365 54.8212 8.49501 54.4356 8.67767C54.0463 8.86038 53.7126 9.11248 53.4308 9.43398C53.149 9.75552 52.9228 10.1355 52.7597 10.5739C52.5965 11.0124 52.5149 11.4801 52.5149 11.977C52.5149 12.4739 52.5965 12.9415 52.7597 13.38C52.9228 13.8185 53.149 14.2021 53.4308 14.5309C53.7126 14.8598 54.0463 15.1192 54.4356 15.3091C54.8212 15.4991 55.2328 15.5941 55.6629 15.5941V15.5942Z" fill="#004421"/>
<path d="M64.5339 15.3311H70.3849V17.2165H61.5083V15.7001L67.3148 8.60097H61.9755V6.71568H70.2959V8.31601L64.5339 15.3311Z" fill="#004421"/>
<path d="M73.149 15.3311H79V17.2165H70.1234V15.7001L75.9299 8.60097H70.5906V6.71568H78.911V8.31601L73.149 15.3311Z" fill="#004421"/>
</svg>
