<svg width="169" height="50" viewBox="0 0 169 50" fill="none" xmlns="http://www.w3.org/2000/svg">
<path fill-rule="evenodd" clip-rule="evenodd" d="M22.5967 33.2619L12.177 33.2638C11.3685 33.2629 10.7469 33.2065 10.0055 33.4988C9.35315 33.756 9.27436 33.9181 8.93812 34.2542L7.73779 35.4902C7.4382 35.7666 7.15882 36.2006 6.87175 36.4531L3.38767 40.2147C3.14501 40.4312 2.94805 40.5528 2.92083 40.9638C2.84987 42.0359 4.11489 41.8309 5.14019 41.8305L15.9898 41.8383C16.0532 43.9235 16.0136 46.3735 16.0043 48.5408C15.9975 50.1252 16.739 49.9989 18.131 49.9974L21.8523 49.9976C23.346 49.993 23.1014 48.7492 23.1015 47.2536L23.1007 41.8461C27.8036 41.882 29.3289 41.9557 31.7367 39.1291L33.1254 37.6738C33.979 36.7383 35.0488 35.7427 35.9113 34.7728C37.3914 33.1087 38.8967 32.1093 39.0868 29.4128C39.2135 27.614 38.7532 26.1764 37.896 24.9556C37.5041 24.3974 36.8586 23.8526 36.5269 23.4802C33.6531 20.2536 32.9166 20.3914 29.0919 20.394L19.2135 20.3927C18.718 20.3881 18.2675 20.6181 18.2336 21.1006C18.1973 21.6189 18.6367 21.8759 18.884 22.1087L21.7633 24.9171C21.9262 25.0952 21.9721 25.1906 22.1406 25.3514L25.4714 28.5886C25.9304 29.0106 26.5991 29.6747 26.6158 30.7207C26.6313 31.689 26.0509 32.5084 25.4681 32.8525C24.5455 33.397 23.759 33.2642 22.5964 33.262L22.5967 33.2619Z" fill="#67ED0A"/>
<path fill-rule="evenodd" clip-rule="evenodd" d="M15.9764 8.08112C12.6687 8.13307 10.7039 7.87157 8.40915 10.2138L1.60123 17.0826C0.905152 17.7597 0.3798 18.4674 0.141893 19.5509C-0.120069 20.7443 -0.0243809 21.8317 0.471266 22.8611C0.731946 23.4025 0.918426 23.6074 1.23634 23.9919C1.86252 24.7492 3.49326 26.3296 4.08135 27.0385C5.53821 28.7945 6.8732 29.5656 9.33477 29.5535L19.0779 29.5517C19.7039 29.554 20.3706 29.6619 20.709 29.2384C21.1805 28.6485 20.5214 28.1682 20.2894 27.9497C19.9331 27.6141 19.6653 27.3067 19.3066 26.9693C18.6559 26.3574 17.993 25.692 17.372 25.0447L13.4551 21.175C11.5903 19.5311 12.5794 16.8218 14.8801 16.6879C16.1032 16.6167 17.5597 16.6821 18.8073 16.6858C21.4221 16.6938 24.0419 16.6639 26.6559 16.6837C28.073 16.6945 28.8403 16.7685 29.8521 16.0359C30.2269 15.7646 30.4321 15.3824 30.8203 15.0402L32.1998 13.5072C32.3673 13.3104 32.5187 13.231 32.6837 13.0448C32.8457 12.8619 32.9425 12.707 33.1095 12.5203C33.2792 12.3308 33.4535 12.2154 33.6203 12.0175C33.773 11.8364 33.8807 11.6564 34.0532 11.5004C34.5601 11.0416 35.0402 10.4331 35.4821 9.95013C35.7593 9.64704 36.2323 9.41061 36.161 8.78728C36.0892 8.16002 35.5694 8.09592 34.9111 8.08799L23.1084 8.09063C23.0015 6.27621 23.0993 4.11663 23.1017 2.26498C23.1029 1.33001 23.206 0.404567 22.3989 0.100565C22.0271 -0.0395059 17.079 -0.0266751 16.7049 0.0982936C15.8764 0.375037 16.0033 1.36679 16.0023 2.2649C16.0012 3.27779 16.0535 7.44004 15.9763 8.08089L15.9764 8.08112Z" fill="#67ED0A"/>
<path d="M57.3383 32.6614C57.6239 32.4072 57.8777 32.1212 58.0997 31.8036C58.3218 31.4858 58.4329 31.1205 58.4329 30.7075C58.4329 30.1991 58.2505 29.7702 57.8856 29.4207C57.5207 29.0713 57.0766 28.7774 56.553 28.5391C56.0295 28.3007 55.4822 28.1181 54.9111 27.991C54.34 27.8639 53.8641 27.7527 53.4834 27.6574C52.4363 27.4032 51.4527 27.0935 50.5326 26.7281C49.6125 26.3627 48.8114 25.918 48.1293 25.3937C47.4471 24.8694 46.9078 24.25 46.5111 23.5351C46.1146 22.8202 45.9162 21.9704 45.9162 20.9854C45.9162 20.0641 46.1383 19.1983 46.5746 18.3881C47.0188 17.578 47.6058 16.8631 48.3434 16.2436C49.0811 15.624 49.9457 15.1315 50.9451 14.7662C51.9366 14.4008 52.9916 14.2182 54.102 14.2182C55.0856 14.2182 56.0215 14.3611 56.9099 14.655C57.7983 14.9409 58.5994 15.3381 59.3133 15.8305C60.0271 16.3309 60.6299 16.9346 61.1217 17.6415C61.6135 18.3484 61.9387 19.1268 62.0974 19.9846L57.9569 20.9854C57.7665 20.2229 57.354 19.5875 56.7194 19.0792C56.0849 18.5709 55.2124 18.3167 54.1018 18.3167C53.7211 18.3167 53.3245 18.3723 52.9121 18.4835C52.4996 18.5947 52.1189 18.7615 51.7699 18.9839C51.4209 19.2063 51.1274 19.4764 50.8895 19.794C50.6515 20.1038 50.5326 20.4692 50.5326 20.8822C50.5326 21.327 50.6674 21.7083 50.9371 22.026C51.2068 22.3437 51.532 22.6058 51.9127 22.8123C52.2934 23.0188 52.7059 23.1777 53.1501 23.3048C53.5944 23.4319 54.0067 23.5431 54.3876 23.6384C56.0691 24.0514 57.4652 24.4962 58.5756 24.9728C59.6861 25.4493 60.5745 25.9736 61.2408 26.5375C61.9071 27.1094 62.3751 27.7369 62.6448 28.42C62.9145 29.103 63.0494 29.8656 63.0494 30.7234C63.0494 31.7401 62.8193 32.6932 62.3593 33.5749C61.8993 34.4645 61.2726 35.235 60.4636 35.8862C59.6546 36.5296 58.6948 37.038 57.5684 37.4033C56.4421 37.7687 55.2364 37.9514 53.9356 37.9514C51.9764 37.9514 50.2234 37.4669 48.6926 36.4978C47.1537 35.5288 46.1226 34.2341 45.5833 32.6137L49.4858 30.8504C49.9934 31.9624 50.6438 32.717 51.4371 33.1141C52.2303 33.5113 53.1345 33.7098 54.1498 33.7098C55.4189 33.7098 56.4818 33.3604 57.3384 32.6614H57.3383Z" fill="white"/>
<path d="M74.959 37.9989C73.3092 37.9989 71.7625 37.6892 70.3188 37.0696C68.8752 36.4501 67.614 35.6002 66.5352 34.52C65.4565 33.4397 64.6078 32.1689 63.9891 30.7074C63.3704 29.2459 63.061 27.6891 63.061 26.0371C63.061 24.385 63.3545 22.8281 63.9415 21.3666C64.5284 19.9051 65.3216 18.6343 66.3211 17.5541C67.3205 16.4738 68.4865 15.6239 69.8191 15.0044C71.1517 14.3848 72.5794 14.0751 74.1024 14.0751C75.657 14.0751 77.0928 14.3451 78.4094 14.8852C79.7261 15.4254 80.8684 16.2673 81.836 17.411C82.8037 18.5548 83.5573 20.0083 84.0967 21.7717C84.636 23.535 84.9057 25.6398 84.9057 28.0862H67.963C68.1851 28.9123 68.5341 29.6827 69.01 30.3976C69.4859 31.1124 70.0491 31.732 70.6995 32.2562C71.3499 32.7804 72.0797 33.1855 72.8887 33.4714C73.6977 33.7574 74.5465 33.9003 75.4349 33.9003C76.6405 33.9003 77.759 33.678 78.7901 33.2331C79.8213 32.7883 80.7017 32.2005 81.4314 31.4698L84.2869 34.3292C83.1764 35.4413 81.8201 36.3309 80.2178 36.9981C78.6156 37.6653 76.8626 37.9989 74.9589 37.9989L74.959 37.9989ZM74.1024 18.2689C73.3727 18.2689 72.6825 18.4118 72.0322 18.6978C71.3817 18.9838 70.7789 19.3809 70.2237 19.8892C69.6685 20.3975 69.1925 21.0012 68.7959 21.7001C68.3994 22.3991 68.1058 23.1616 67.9155 23.9877H79.9562C79.8928 23.2252 79.7183 22.4944 79.4328 21.7955C79.1472 21.0965 78.7506 20.485 78.243 19.9607C77.7354 19.4364 77.1405 19.0235 76.4583 18.7216C75.7762 18.4198 74.9909 18.2688 74.1025 18.2688L74.1024 18.2689Z" fill="white"/>
<path d="M90.8664 37.4271H86.25V14.5993H89.9146L90.8665 16.6009C91.6279 15.8702 92.548 15.2665 93.6268 14.79C94.7056 14.3134 95.8795 14.0751 97.1486 14.0751C97.9735 14.0751 98.9095 14.2022 99.9565 14.4564C101.004 14.7106 101.979 15.1871 102.883 15.8861C103.788 16.5851 104.549 17.5541 105.168 18.7931C105.787 20.0323 106.096 21.6367 106.096 23.6065V37.4271H101.717V23.5589C101.717 22.5739 101.567 21.7399 101.265 21.0568C100.964 20.3738 100.567 19.8257 100.075 19.4127C99.5837 18.9997 99.0285 18.7058 98.4097 18.531C97.791 18.3563 97.1486 18.269 96.4823 18.269C95.9746 18.269 95.3956 18.3642 94.7451 18.5549C94.0947 18.7456 93.484 19.0553 92.9128 19.4842C92.3417 19.9131 91.8579 20.4532 91.4613 21.1046C91.0647 21.7559 90.8664 22.5581 90.8664 23.5112V37.4271Z" fill="white"/>
<path d="M130.522 2.63739V37.4271H126.858L125.906 35.0442C124.986 35.9656 123.939 36.6884 122.765 37.2126C121.591 37.7368 120.242 37.999 118.719 37.999C117.133 37.999 115.673 37.6893 114.341 37.0697C113.008 36.4501 111.85 35.6003 110.867 34.52C109.883 33.4398 109.114 32.169 108.558 30.7075C108.003 29.246 107.726 27.6892 107.726 26.0371C107.726 24.385 108.003 22.8282 108.558 21.3667C109.114 19.9052 109.883 18.6344 110.867 17.5541C111.85 16.4739 113.008 15.624 114.341 15.0045C115.673 14.3849 117.133 14.0752 118.719 14.0752C120.306 14.0752 121.686 14.3373 122.86 14.8615C124.034 15.3858 125.049 16.1244 125.906 17.0776V2.63746H130.522L130.522 2.63739ZM119.076 33.9004C120.028 33.9004 120.917 33.7415 121.726 33.4239C122.543 33.1061 123.256 32.6217 123.875 31.9703C124.494 31.319 124.986 30.5009 125.335 29.5159C125.684 28.531 125.858 27.3714 125.858 26.037C125.858 24.6073 125.684 23.3999 125.335 22.4151C124.986 21.4301 124.494 20.6279 123.875 20.0083C123.256 19.3888 122.543 18.944 121.726 18.6739C120.917 18.4038 120.028 18.2688 119.076 18.2688C118.156 18.2688 117.276 18.4674 116.451 18.8645C115.618 19.2617 114.904 19.8098 114.301 20.5087C113.698 21.2077 113.215 22.0337 112.866 22.9868C112.517 23.94 112.342 24.9566 112.342 26.0369C112.342 27.1171 112.517 28.1338 112.866 29.087C113.215 30.0401 113.698 30.8741 114.301 31.589C114.904 32.3038 115.618 32.8678 116.451 33.2808C117.276 33.6938 118.156 33.9003 119.076 33.9003V33.9004Z" fill="white"/>
<path d="M138.053 33.3285H150.57V37.4271H131.581V34.1308L144.003 18.6978H132.58V14.5993H150.38V18.0783L138.053 33.3285Z" fill="white"/>
<path d="M156.483 33.3285H169V37.4271H150.011V34.1308L162.432 18.6978H151.01V14.5993H168.81V18.0783L156.483 33.3285Z" fill="white"/>
</svg>
