<svg width="488" height="307" viewBox="0 0 488 307" fill="none" xmlns="http://www.w3.org/2000/svg">
<g clip-path="url(#clip0_74_2)">
<path d="M241.375 230.675C249.627 224.365 255.259 221.043 265.239 218.286C263.368 225.228 261.43 232.153 259.432 239.06C261.304 238.617 264.337 237.414 266.245 236.714C287.857 229.121 316.404 230.455 338.536 235.234C348.48 237.381 358.084 239.355 361.639 250.279C363.368 255.593 363.005 260.626 360.513 265.68C357.144 272.572 352.549 273.876 346.006 276.238C348.929 276.582 353.58 277.741 356.548 278.443C361.449 279.605 366.521 280.431 371.134 282.36C376.055 285.095 379.576 288.983 381.142 294.46C382.607 299.554 381.959 305.024 379.345 309.636C375.163 317.054 365.321 319.515 365.223 319.696L364.96 321.063C365.688 322.8 366.99 324.371 367.722 326.09C369.594 330.491 369.519 335.971 367.793 340.406C365.826 345.437 362.35 348.955 357.561 351.374C355.461 352.433 352.11 352.635 351.007 353.108C349.842 353.808 348.958 353.459 347.608 353.198C347.816 355.761 347.604 357.441 347.236 360H250.429H230.124H31.0046C32.5305 356.212 40.738 349.639 44.4153 347.461C49.7939 344.278 56.0602 341.783 61.6932 339.102L99.7455 321.079C103.293 319.381 110.945 316.005 113.846 314.21C115.077 314.029 115.491 313.517 116.265 312.595C117.912 312.779 123.947 309.847 125.384 308.937C129.646 307.087 134.125 304.8 138.347 302.808C147.102 298.777 155.817 294.661 164.492 290.463L218.812 264.953C220.08 262.125 221.243 259.032 222.596 256.098C227.587 245.275 232.691 238.56 241.375 230.675Z" fill="#F26641"/>
<path d="M291.971 267.693C305.037 266.898 325.835 270.915 338.822 273.489C340.915 273.903 344.026 274.648 346.027 275.407C346.543 275.604 346.5 276.005 346.641 276.586C342.886 276.335 336.305 274.13 332.256 273.367C318.98 270.865 305.723 269.149 292.286 268.673C292.055 268.666 292.003 267.881 291.971 267.693Z" fill="black"/>
<path d="M259.317 239.092L259.745 239.572C259.604 240.043 259.491 240.231 258.979 240.444C253.306 242.792 247.413 245.149 242.071 248.219L241.615 247.902L241.629 247.415C243.181 245.536 256.471 240.19 259.317 239.092Z" fill="black"/>
<path d="M30.8537 360C30.6371 359.482 28.8357 357.027 28.3833 356.368C26.9183 354.238 25.7343 351.928 24.8605 349.497C21.0939 339.249 21.3548 328.478 26.0019 318.559C29.4266 311.251 33.318 303.869 36.8855 296.606L56.8842 255.883C61.9082 245.774 66.7725 234.27 73.0161 224.911C75.9301 220.795 80.1571 218.04 83.8673 214.913C99.2738 201.929 115.229 206.028 133.196 208.906L167.41 214.265C177.178 215.783 187.342 217.544 197.074 218.911L213.146 221.272C221.205 222.532 226.135 223.494 233.448 227.416C235.383 228.453 239.137 229.628 241.375 230.675C232.691 238.56 227.587 245.275 222.596 256.098C221.243 259.032 220.08 262.125 218.812 264.953L164.492 290.463C155.817 294.661 147.102 298.777 138.347 302.808C134.125 304.8 129.646 307.087 125.384 308.937C123.947 309.847 117.912 312.779 116.265 312.595C115.491 313.517 115.077 314.029 113.846 314.21C110.945 316.005 103.293 319.381 99.7455 321.079L61.6932 339.102C56.0602 341.783 49.7939 344.278 44.4153 347.461C40.738 349.639 32.5305 356.212 31.0046 360H30.8537Z" fill="#006633"/>
<path d="M116.265 312.595C119.123 306.636 121.533 301.259 124.68 295.368C125.959 299.973 124.988 304.512 125.384 308.937C123.947 309.847 117.912 312.779 116.265 312.595Z" fill="#4CAD07"/>
<path d="M113.846 314.21C116.068 310.673 127.692 284.613 129.24 284.074L129.48 284.4C129.423 286.114 125.642 293.251 124.68 295.368C121.533 301.259 119.123 306.636 116.265 312.595C115.491 313.517 115.077 314.029 113.846 314.21Z" fill="black"/>
<path d="M301.426 140.928C304.582 132.538 317.987 135.152 316.082 145.334C316.691 145.203 317.065 145.111 317.668 145.278L374.73 161.657C379.703 163.06 384.88 164.494 389.817 165.957C392.78 166.835 400.485 168.626 402.923 169.976L402.536 171.137C400.85 176.801 399.412 182.319 397.794 187.962L379.218 253.811C376.572 263.219 373.966 273.054 371.134 282.36C366.521 280.431 361.449 279.605 356.548 278.443C353.58 277.741 348.929 276.582 346.006 276.238C352.549 273.876 357.144 272.572 360.513 265.68C363.005 260.626 363.368 255.593 361.639 250.279C358.084 239.355 348.48 237.381 338.536 235.234C316.404 230.455 287.857 229.121 266.245 236.714C266.333 234.915 268.162 229.317 268.764 227.233L273.54 210.48C278.622 192.912 283.214 175.17 288.298 157.596C290.027 151.616 291.837 145.681 293.156 139.592C294.792 140.264 299.572 141.738 301.31 141.688L301.426 140.928Z" fill="#0E2406"/>
<path d="M301.426 140.928C304.582 132.538 317.987 135.152 316.082 145.334L316.014 145.662C313.742 151.451 307.273 153.042 302.946 148.589C300.963 146.549 301.102 144.229 301.31 141.688L301.426 140.928Z" fill="#4CAD07"/>
<path d="M316.082 145.334C316.691 145.203 317.065 145.111 317.668 145.278L374.73 161.657C379.703 163.06 384.88 164.494 389.817 165.957C392.78 166.835 400.485 168.626 402.923 169.976L402.536 171.137C402.216 170.743 391.763 167.644 390.51 167.277L342.173 153.582C334.037 151.295 325.82 149.262 317.749 146.704C316.984 146.461 316.342 146.374 316.014 145.662L316.082 145.334Z" fill="#4CAD07"/>
<path d="M301.426 140.928C299.892 139.363 295.474 139.986 293.827 138.218C293.836 137.561 293.917 137.772 294.067 137.379C295.36 133.966 294.812 130.481 299.033 128.919C299.837 128.621 301.163 128.951 302.053 129.167C307.318 130.443 312.563 132.274 317.749 133.735L351.176 143.08C356.05 144.486 364.256 147.261 368.841 148.075C369.086 148.422 369.093 148.409 369.218 148.811C373.885 149.328 376.88 150.66 381.312 151.856C385.596 153.012 389.765 154.025 394.028 155.318C395.664 155.814 400.941 157.387 402.457 157.461C403.811 159.13 404.353 159.73 404.962 161.774C404.462 164.684 403.315 167.669 402.923 169.976C400.485 168.626 392.78 166.835 389.817 165.957C384.88 164.494 379.703 163.06 374.73 161.657L317.668 145.278C317.065 145.111 316.691 145.203 316.082 145.334C317.987 135.152 304.582 132.538 301.426 140.928Z" fill="#004421"/>
<path d="M265.239 218.286L283.715 152.593L288.398 136.259C289.336 133.032 290.87 126.782 292.497 124.212C295.648 122.127 299.348 123.914 302.735 124.864L313.991 128.048L349.758 138.377L383.693 147.989C388.348 149.33 393.58 150.715 398.141 152.356C399.337 152.786 401.609 156.271 402.457 157.461C400.941 157.387 395.664 155.814 394.028 155.318C389.764 154.025 385.596 153.012 381.311 151.856C376.88 150.66 373.885 149.328 369.218 148.811C369.093 148.409 369.086 148.422 368.841 148.075C364.256 147.261 356.05 144.486 351.176 143.08L317.749 133.735C312.563 132.274 307.318 130.443 302.053 129.167C301.163 128.951 299.837 128.621 299.033 128.918C294.812 130.481 295.36 133.966 294.067 137.378C293.917 137.772 293.836 137.561 293.827 138.218C295.474 139.986 299.892 139.363 301.426 140.928L301.31 141.688C299.572 141.738 294.792 140.264 293.156 139.592C291.837 145.681 290.027 151.616 288.298 157.596C283.214 175.17 278.622 192.912 273.54 210.48L268.764 227.233C268.162 229.317 266.333 234.915 266.245 236.714C264.337 237.414 261.304 238.617 259.432 239.06C261.43 232.153 263.368 225.228 265.239 218.286Z" fill="#006633"/>
<path d="M91.6339 101.578C92.3752 97.9286 93.1781 94.1314 94.2072 90.5543C100.934 67.6107 116.489 48.2685 137.463 36.768C158.387 25.3933 182.971 22.7753 205.825 29.4882C227.491 35.8252 247.336 50.9348 258.207 70.8014C259.836 73.1685 261.261 76.2473 262.448 78.8697C269.335 94.4597 271.721 111.665 269.335 128.54C279.066 141.221 277.034 155.761 268.202 167.994C267.45 169.036 266.861 172.211 265.948 173.443C262.844 179.763 256.992 186.026 251.31 190.244C230.253 205.592 201.628 208.146 176.444 205.149C149.853 201.984 123.597 188.147 107.469 166.599C103.53 161.335 101.51 156.33 98.143 151.196C93.5563 154.721 88.644 157.552 82.7175 156.438C67.4499 153.569 61.8958 136.163 64.1192 122.614C66.391 108.771 76.8874 96.6949 91.6339 101.578Z" fill="#F26641"/>
<path d="M91.6339 101.578C92.3752 97.9286 93.1782 94.1314 94.2072 90.5543C100.934 67.6107 116.489 48.2685 137.463 36.768C158.387 25.3933 182.971 22.7753 205.825 29.4882C227.491 35.8252 247.336 50.9348 258.207 70.8014L258.05 70.7708C255.687 70.2845 251.507 68.8931 249.047 68.1894C243.752 66.6967 238.434 65.2913 233.092 63.9738C205.742 57.4026 174.334 52.1092 146.048 53.5177C143.849 53.6273 137.779 54.1689 135.723 54.6458C125.734 75.5588 121.684 101.175 118.387 123.917C114.568 123.164 110.17 123.065 106.416 124.211C105.146 113.857 100.999 106.623 91.6339 101.578Z" fill="black"/>
<path d="M168.621 105.175C172.918 104.558 185.515 106.129 188.822 108.552C191.48 108.755 197.079 112.709 198.799 114.741C207.763 125.333 195.182 133.981 184.698 133.314C181.061 134.195 167.893 132.001 164.632 129.947C163.591 129.845 162.476 129.278 161.543 128.804C144.473 120.14 150.864 105.034 168.621 105.175Z" fill="black"/>
<path d="M188.822 108.552C191.48 108.755 197.079 112.709 198.799 114.741C207.763 125.333 195.182 133.981 184.698 133.314C187.523 131.473 188.728 130.116 190.633 127.486C187.39 127.787 184.17 127.227 183.493 123.373C183.222 121.848 183.591 120.279 184.513 119.033C185.336 117.914 186.589 117.189 187.97 117.029C190.077 116.793 191.427 117.682 192.944 118.916C192.648 114.812 191.498 111.661 188.822 108.552Z" fill="#FFECEB"/>
<path d="M164.632 129.947C163.591 129.845 162.476 129.278 161.543 128.804C144.473 120.14 150.864 105.034 168.621 105.175C164.648 107.706 161.838 111.054 160.832 115.756C159.905 119.931 160.702 124.304 163.042 127.885C163.439 128.499 164.133 129.398 164.632 129.947Z" fill="#FFECEB"/>
<path d="M226.929 115.068C231.431 114.31 243.851 116.03 247.476 118.671C248.904 118.419 251.835 120.3 253.014 121.123C256.219 123.362 259.53 126.497 260.207 130.535C260.601 132.826 260.033 135.179 258.635 137.038C256.215 140.303 250.698 142.449 246.781 142.999C245.963 143.114 244.028 143.395 243.314 143.018C243.108 143.092 242.895 143.151 242.68 143.196C238.636 144.059 226.493 141.887 222.915 139.668C221.066 139.714 218.376 137.974 216.907 136.928C217.046 135.936 217.21 134.607 217.156 133.658C216.958 130.251 215.235 127.764 211.883 126.769C211.608 126.629 210.214 126.281 210.193 126.006C209.57 117.905 222.084 114.725 226.929 115.068Z" fill="black"/>
<path d="M247.477 118.671C248.904 118.419 251.836 120.3 253.014 121.123C256.22 123.362 259.53 126.497 260.207 130.535C260.601 132.826 260.033 135.179 258.635 137.038C256.215 140.303 250.698 142.449 246.781 142.999C245.963 143.114 244.028 143.395 243.315 143.018C245.641 141.657 247.094 140.1 248.768 138.013C246.867 137.631 245.417 137.142 244.237 135.461C243.423 134.301 243.12 132.859 243.396 131.47C243.673 130.002 244.552 128.718 245.823 127.933C247.753 126.741 249.373 127.071 251.373 127.576C250.714 123.943 249.837 121.533 247.477 118.671Z" fill="#FFECEB"/>
<path d="M216.907 136.928C217.046 135.936 217.21 134.606 217.156 133.658C216.958 130.251 215.235 127.764 211.883 126.769C211.608 126.629 210.214 126.281 210.193 126.006C209.57 117.905 222.084 114.725 226.929 115.068C222.945 117.745 220.155 121.29 219.221 126.078C218.394 130.309 219.304 134.695 221.745 138.249C222.092 138.75 222.502 139.222 222.915 139.668C221.066 139.714 218.376 137.973 216.907 136.928Z" fill="#FFECEB"/>
<path d="M168.541 60.9306C169.115 60.8815 169.694 60.8948 170.266 60.9702C178.926 62.0412 188.23 64.2639 196.895 65.6369C199.357 66.027 199.471 69.1588 197.116 70.7428C196.165 70.7649 195.142 70.6169 194.204 70.4484C185.995 68.9731 177.724 67.7154 169.544 66.0974C166.369 65.4693 166.28 62.9172 168.541 60.9306Z" fill="black"/>
<path d="M229.766 71.1027C232.949 70.8092 238.552 72.3131 241.851 72.6785C245.089 73.3777 248.77 73.5534 251.942 74.4658C254.792 75.2857 254.233 78.0013 252.271 79.4877C249.13 80.0748 234.839 76.3729 230.824 76.082C228.389 75.9054 227.183 73.2667 229.766 71.1027Z" fill="black"/>
<path d="M80.6687 112.871C81.4504 112.834 82.1235 112.797 83.0705 112.853C89.743 113.249 95.7965 118.887 97.4287 125.169C97.5012 125.448 97.1418 125.584 96.9001 125.752C96.5555 125.21 96.3199 124.589 96.0326 124.003C93.7953 119.44 91.693 116.609 86.8985 114.769C84.4229 113.82 80.9854 114.504 80.0364 113.63C80.2414 113.013 80.0642 113.278 80.6687 112.871Z" fill="#6F0101"/>
<path d="M197.182 153.603C200.998 153.591 205.766 153.993 209.449 154.974C210.419 155.233 213.809 156.332 214.263 157.134L214.07 157.629C213.275 157.708 212.188 157.018 211.323 156.614C206.992 155.112 202.014 154.644 197.439 154.62C195.795 154.611 194.32 154.946 192.68 154.79L192.397 154.44C193.256 153.627 195.883 153.675 197.182 153.603Z" fill="#6A0000"/>
<path d="M105.192 137.732C107.387 139.458 100.285 149.687 98.266 151.348L98.0125 150.932C98.5667 149.695 100.143 148.224 101.001 146.97C103.103 143.9 104.045 141.17 105.192 137.732Z" fill="black"/>
<path d="M205.625 135.799C206.06 136.298 205.967 136.023 205.993 136.621C205.382 137.415 203.541 138.635 202.631 139.325L202.19 138.926L202.225 138.44C202.902 137.582 204.649 136.496 205.625 135.799Z" fill="#6A0000"/>
<path d="M211.086 136.934C211.308 137.152 211.369 137.295 211.54 137.563C211.195 138.529 209.058 139.617 208.14 140.168C207.892 140.093 207.977 140.09 207.756 139.814C208.051 139.028 210.303 137.521 211.086 136.934Z" fill="#6A0000"/>
</g>
<path d="M350.548 77.0052C354.724 76.8545 369.336 80.0338 374.103 80.9277L418.496 89.1864C420.795 89.6148 423.593 90.2158 425.884 90.4717C429.35 90.8582 435.486 90.3644 438.643 91.5905C439.108 92.1311 438.999 91.8255 438.963 92.5452C437.706 94.4759 433.38 95.7709 431.121 96.6143C430.163 101.826 429.116 107.023 427.985 112.203C426.271 115.569 423.647 116.423 419.98 115.822C414.502 114.926 409.057 113.863 403.601 112.842L373.643 107.246L355.807 103.926C353.257 103.451 350.298 102.972 347.758 102.366C339.478 100.394 344.367 89.942 345.094 84.5323C345.592 80.817 346.453 78.2243 350.548 77.0052Z" fill="#0E2406"/>
<path d="M358.014 0.00788952C364.107 -0.221538 385.428 4.61838 392.384 5.97928L457.162 18.5518C460.516 19.2039 464.598 20.1188 467.942 20.5084C472.999 21.0967 481.952 20.3451 486.56 22.2115C487.238 23.0345 487.078 22.5694 487.026 23.665C485.192 26.6041 478.88 28.5756 475.584 29.8595C474.185 37.7938 472.658 45.7053 471.008 53.5912C468.506 58.7141 464.678 60.0151 459.326 59.1006C451.333 57.7358 443.389 56.1184 435.427 54.5635L391.713 46.0448L365.687 40.9908C361.967 40.2666 357.648 39.5373 353.942 38.6157C341.86 35.614 348.994 19.7021 350.055 11.4667C350.783 5.81076 352.039 1.86385 358.014 0.00788952Z" fill="url(#paint0_linear_74_2)"/>
<defs>
<linearGradient id="paint0_linear_74_2" x1="347" y1="29.6855" x2="567.607" y2="29.6855" gradientUnits="userSpaceOnUse">
<stop stop-color="#0E2406"/>
<stop offset="1" stop-color="#368A17"/>
</linearGradient>
<clipPath id="clip0_74_2">
<rect width="464" height="348" fill="white" transform="translate(0 12)"/>
</clipPath>
</defs>
</svg>
