<svg width="1611" height="2057" viewBox="0 0 1611 2057" fill="none" xmlns="http://www.w3.org/2000/svg">
<path fill-rule="evenodd" clip-rule="evenodd" d="M930.598 1367.95L501.475 1368.03C468.178 1367.99 442.579 1365.68 412.046 1377.7C385.18 1388.28 381.935 1394.94 368.087 1408.76L318.654 1459.6C306.316 1470.97 294.81 1488.81 282.987 1499.2L139.5 1653.91C129.507 1662.81 121.395 1667.81 120.274 1684.71C117.352 1728.8 169.45 1720.38 211.675 1720.36L658.502 1720.68C661.111 1806.44 659.48 1907.2 659.098 1996.34C658.819 2061.5 689.355 2056.3 746.683 2056.24L899.94 2056.25C961.457 2056.06 951.383 2004.91 951.386 1943.4L951.355 1721C1145.04 1722.48 1207.85 1725.51 1307.01 1609.26L1364.2 1549.4C1399.36 1510.93 1443.42 1469.98 1478.94 1430.1C1539.9 1361.65 1601.89 1320.55 1609.72 1209.65C1614.94 1135.67 1595.98 1076.55 1560.67 1026.34C1544.53 1003.38 1517.95 980.977 1504.29 965.66C1385.94 832.959 1355.6 838.629 1198.09 838.735L791.263 838.679C770.856 838.493 752.304 847.949 750.91 867.796C749.413 889.109 767.509 899.681 777.695 909.255L896.272 1024.75C902.983 1032.08 904.871 1036.01 911.812 1042.62L1048.99 1175.75C1067.89 1193.11 1095.43 1220.42 1096.12 1263.44C1096.76 1303.27 1072.85 1336.97 1048.85 1351.12C1010.85 1373.51 978.466 1368.05 930.585 1367.96L930.598 1367.95Z" fill="#67ED0A"/>
<path fill-rule="evenodd" clip-rule="evenodd" d="M657.963 332.354C521.743 334.491 440.823 323.736 346.319 420.066L65.9443 702.558C37.2774 730.406 15.6415 759.513 5.84365 804.074C-4.94489 853.154 -1.00409 897.877 19.4084 940.214C30.1442 962.48 37.8241 970.909 50.9169 986.722C76.705 1017.87 143.865 1082.86 168.085 1112.02C228.083 1184.24 283.063 1215.95 384.439 1215.45L785.696 1215.38C811.478 1215.47 838.934 1219.91 852.871 1202.5C872.29 1178.23 845.144 1158.48 835.592 1149.49C820.915 1135.69 809.888 1123.05 795.115 1109.17C768.317 1084.01 741.014 1056.64 715.44 1030.02L554.127 870.868C477.328 803.261 518.066 691.835 612.815 686.326C663.187 683.398 723.173 686.087 774.55 686.242C882.24 686.568 990.131 685.338 1097.78 686.155C1156.15 686.599 1187.75 689.643 1229.42 659.513C1244.85 648.355 1253.3 632.635 1269.29 618.561L1326.1 555.516C1333 547.42 1339.24 544.153 1346.03 536.494C1352.7 528.976 1356.69 522.604 1363.57 514.927C1370.56 507.132 1377.73 502.384 1384.6 494.247C1390.89 486.8 1395.33 479.397 1402.43 472.978C1423.31 454.112 1443.08 429.084 1461.28 409.221C1472.7 396.756 1492.18 387.033 1489.24 361.397C1486.28 335.599 1464.88 332.963 1437.76 332.637L951.685 332.745C947.285 258.123 951.31 169.305 951.409 93.1521C951.459 54.6997 955.707 16.6387 922.469 4.13595C907.155 -1.62477 703.375 -1.09707 687.969 4.04254C653.845 15.4242 659.072 56.2122 659.031 93.1491C658.985 134.806 661.14 305.988 657.96 332.345L657.963 332.354Z" fill="#67ED0A"/>
</svg>
