<svg width="40" height="50" viewBox="0 0 40 50" fill="none" xmlns="http://www.w3.org/2000/svg">
<path fill-rule="evenodd" clip-rule="evenodd" d="M22.5967 33.2619L12.177 33.2638C11.3685 33.2629 10.7469 33.2065 10.0055 33.4988C9.35315 33.756 9.27436 33.9181 8.93812 34.2542L7.73779 35.4902C7.4382 35.7666 7.15882 36.2006 6.87175 36.4531L3.38767 40.2147C3.14501 40.4312 2.94805 40.5528 2.92083 40.9638C2.84987 42.0359 4.11489 41.8309 5.14019 41.8305L15.9898 41.8383C16.0532 43.9235 16.0136 46.3735 16.0043 48.5408C15.9975 50.1252 16.739 49.9989 18.131 49.9974L21.8523 49.9976C23.346 49.993 23.1014 48.7492 23.1015 47.2536L23.1007 41.8461C27.8036 41.882 29.3289 41.9557 31.7367 39.1291L33.1254 37.6738C33.979 36.7383 35.0488 35.7427 35.9113 34.7728C37.3914 33.1087 38.8967 32.1093 39.0868 29.4128C39.2135 27.614 38.7532 26.1764 37.896 24.9556C37.5041 24.3974 36.8586 23.4802C33.6531 20.2536 32.9166 20.3914 29.0919 20.394L19.2135 20.3927C18.718 20.3881 18.2675 20.6181 18.2336 21.1006C18.1973 21.6189 18.6367 21.8759 18.884 22.1087L21.7633 24.9171C21.9262 25.0952 21.9721 25.1906 22.1406 25.3514L25.4714 28.5886C25.9304 29.0106 26.5991 29.6747 26.6158 30.7207C26.6313 31.689 26.0509 32.5084 25.4681 32.8525C24.5455 33.397 23.759 33.2642 22.5964 33.262L22.5967 33.2619Z" fill="#67ED0A"/>
<path fill-rule="evenodd" clip-rule="evenodd" d="M15.9764 8.08112C12.6687 8.13307 10.7039 7.87157 8.40915 10.2138L1.60123 17.0826C0.905152 17.7597 0.3798 18.4674 0.141893 19.5509C-0.120069 20.7443 -0.0243809 21.8317 0.471266 22.8611C0.731946 23.4025 0.918426 23.6074 1.23634 23.9919C1.86252 24.7492 3.49326 26.3296 4.08135 27.0385C5.53821 28.7945 6.8732 29.5656 9.33477 29.5535L19.0779 29.5517C19.7039 29.554 20.3706 29.6619 20.709 29.2384C21.1805 28.6485 20.5214 28.1682 20.2894 27.9497C19.9331 27.6141 19.6653 27.3067 19.3066 26.9693C18.6559 26.3574 17.993 25.692 17.372 25.0447L13.4551 21.175C11.5903 19.5311 12.5794 16.8218 14.8801 16.6879C16.1032 16.6167 17.5597 16.6821 18.8073 16.6858C21.4221 16.6938 24.0419 16.6639 26.6559 16.6837C28.073 16.6945 28.8403 16.7685 29.8521 16.0359C30.2269 15.7646 30.4321 15.3824 30.8203 15.0402L32.1998 13.5072C32.3673 13.3104 32.5187 13.231 32.6837 13.0448C32.8457 12.8619 32.9425 12.707 33.1095 12.5203C33.2792 12.3308 33.4535 12.2154 33.6203 12.0175C33.773 11.8364 33.8807 11.6564 34.0532 11.5004C34.5601 11.0416 35.0402 10.4331 35.4821 9.95013C35.7593 9.64704 36.2323 9.41061 36.161 8.78728C36.0892 8.16002 35.5694 8.09592 34.9111 8.08799L23.1084 8.09063C23.0015 6.27621 23.0993 4.11663 23.1017 2.26498C23.1029 1.33001 23.206 0.404567 22.3989 0.100565C22.0271 -0.0395059 17.079 -0.0266751 16.7049 0.0982936C15.8764 0.375037 16.0033 1.36679 16.0023 2.2649C16.0012 3.27779 16.0535 7.44004 15.9763 8.08089L15.9764 8.08112Z" fill="#67ED0A"/>
</svg>
